<?xml version="1.0" standalone="no"?>
 <!DOCTYPE svg PUBLIC "-//W3C//DTD SVG 1.1//EN" 
 "http://www.w3.org/Graphics/SVG/1.1/DTD/svg11.dtd"> 
<svg xmlns="http://www.w3.org/2000/svg" version="1.1" 
    width="29.7002cm" height="21.0007cm" viewBox="0 0 116930 82680 ">
<title>SVG Picture created as receiver_mini-F.Mask.svg date 2018/12/14 01:57:14 </title>
  <desc>Picture generated by PCBNEW </desc>
<g style="fill:#000000; fill-opacity:1;stroke:#000000; stroke-opacity:1;
stroke-linecap:round; stroke-linejoin:round; "
 transform="translate(0 0) scale(1 1)">
</g>
<g style="fill:#000000; fill-opacity:0.0; 
stroke:#000000; stroke-width:-0.000393701; stroke-opacity:1; 
stroke-linecap:round; stroke-linejoin:round;">
</g>
<g style="fill:#000000; fill-opacity:0.0; 
stroke:#000000; stroke-width:39.3701; stroke-opacity:1; 
stroke-linecap:round; stroke-linejoin:round;">
</g>
<g style="fill:#000000; fill-opacity:0.0; 
stroke:#000000; stroke-width:59.0551; stroke-opacity:1; 
stroke-linecap:round; stroke-linejoin:round;">
<rect x="69685.9" y="65357.2" width="42519.7" height="12598.4" rx="0" />
</g>
<g style="fill:#000000; fill-opacity:0.0; 
stroke:#000000; stroke-width:39.3701; stroke-opacity:1; 
stroke-linecap:round; stroke-linejoin:round;">
</g>
<g style="fill:#000000; fill-opacity:0.0; 
stroke:#000000; stroke-width:59.0551; stroke-opacity:1; 
stroke-linecap:round; stroke-linejoin:round;">
<rect x="3937.01" y="3937.01" width="109056" height="74806" rx="0" />
</g>
<g style="fill:#000000; fill-opacity:0.0; 
stroke:#000000; stroke-width:39.3701; stroke-opacity:1; 
stroke-linecap:round; stroke-linejoin:round;">
</g>
<g style="fill:#000000; fill-opacity:0.0; 
stroke:#000000; stroke-width:59.0551; stroke-opacity:1; 
stroke-linecap:round; stroke-linejoin:round;">
<rect x="4724.41" y="4724.41" width="107481" height="73231.2" rx="0" />
</g>
<g style="fill:#000000; fill-opacity:0.0; 
stroke:#000000; stroke-width:39.3701; stroke-opacity:1; 
stroke-linecap:round; stroke-linejoin:round;">
</g>
<g style="fill:#000000; fill-opacity:0.0; 
stroke:#000000; stroke-width:59.0551; stroke-opacity:1; 
stroke-linecap:round; stroke-linejoin:round;">
<path d="M23622 4724
L23622 3937
" />
</g>
<g style="fill:#000000; fill-opacity:0.0; 
stroke:#000000; stroke-width:39.3701; stroke-opacity:1; 
stroke-linecap:round; stroke-linejoin:round;">
</g>
<g style="fill:#000000; fill-opacity:0.0; 
stroke:#000000; stroke-width:59.0551; stroke-opacity:1; 
stroke-linecap:round; stroke-linejoin:round;">
<path d="M43307 4724
L43307 3937
" />
</g>
<g style="fill:#000000; fill-opacity:0.0; 
stroke:#000000; stroke-width:39.3701; stroke-opacity:1; 
stroke-linecap:round; stroke-linejoin:round;">
</g>
<g style="fill:#000000; fill-opacity:0.0; 
stroke:#000000; stroke-width:59.0551; stroke-opacity:1; 
stroke-linecap:round; stroke-linejoin:round;">
<path d="M62992 4724
L62992 3937
" />
</g>
<g style="fill:#000000; fill-opacity:0.0; 
stroke:#000000; stroke-width:39.3701; stroke-opacity:1; 
stroke-linecap:round; stroke-linejoin:round;">
</g>
<g style="fill:#000000; fill-opacity:0.0; 
stroke:#000000; stroke-width:59.0551; stroke-opacity:1; 
stroke-linecap:round; stroke-linejoin:round;">
<path d="M82677 4724
L82677 3937
" />
</g>
<g style="fill:#000000; fill-opacity:0.0; 
stroke:#000000; stroke-width:39.3701; stroke-opacity:1; 
stroke-linecap:round; stroke-linejoin:round;">
</g>
<g style="fill:#000000; fill-opacity:0.0; 
stroke:#000000; stroke-width:59.0551; stroke-opacity:1; 
stroke-linecap:round; stroke-linejoin:round;">
<path d="M102362 4724
L102362 3937
" />
</g>
<g style="fill:#000000; fill-opacity:0.0; 
stroke:#000000; stroke-width:39.3701; stroke-opacity:1; 
stroke-linecap:round; stroke-linejoin:round;">
</g>
<g style="fill:#000000; fill-opacity:0.0; 
stroke:#000000; stroke-width:59.0551; stroke-opacity:1; 
stroke-linecap:round; stroke-linejoin:round;">
<path d="M14199 4562
L13906 4562
" />
<path d="M14052 4562
L14052 4050
L14004 4123
L13955 4172
L13906 4196
" />
</g>
<g style="fill:#000000; fill-opacity:0.0; 
stroke:#000000; stroke-width:39.3701; stroke-opacity:1; 
stroke-linecap:round; stroke-linejoin:round;">
</g>
<g style="fill:#000000; fill-opacity:0.0; 
stroke:#000000; stroke-width:59.0551; stroke-opacity:1; 
stroke-linecap:round; stroke-linejoin:round;">
<path d="M33591 4099
L33615 4074
L33664 4050
L33786 4050
L33835 4074
L33859 4099
L33884 4147
L33884 4196
L33859 4269
L33567 4562
L33884 4562
" />
</g>
<g style="fill:#000000; fill-opacity:0.0; 
stroke:#000000; stroke-width:39.3701; stroke-opacity:1; 
stroke-linecap:round; stroke-linejoin:round;">
</g>
<g style="fill:#000000; fill-opacity:0.0; 
stroke:#000000; stroke-width:59.0551; stroke-opacity:1; 
stroke-linecap:round; stroke-linejoin:round;">
<path d="M53252 4050
L53569 4050
L53398 4245
L53471 4245
L53520 4269
L53544 4294
L53569 4342
L53569 4464
L53544 4513
L53520 4537
L53471 4562
L53325 4562
L53276 4537
L53252 4513
" />
</g>
<g style="fill:#000000; fill-opacity:0.0; 
stroke:#000000; stroke-width:39.3701; stroke-opacity:1; 
stroke-linecap:round; stroke-linejoin:round;">
</g>
<g style="fill:#000000; fill-opacity:0.0; 
stroke:#000000; stroke-width:59.0551; stroke-opacity:1; 
stroke-linecap:round; stroke-linejoin:round;">
<path d="M73205 4221
L73205 4562
" />
<path d="M73083 4026
L72961 4391
L73278 4391
" />
</g>
<g style="fill:#000000; fill-opacity:0.0; 
stroke:#000000; stroke-width:39.3701; stroke-opacity:1; 
stroke-linecap:round; stroke-linejoin:round;">
</g>
<g style="fill:#000000; fill-opacity:0.0; 
stroke:#000000; stroke-width:59.0551; stroke-opacity:1; 
stroke-linecap:round; stroke-linejoin:round;">
<path d="M92914 4050
L92671 4050
L92646 4294
L92671 4269
L92719 4245
L92841 4245
L92890 4269
L92914 4294
L92939 4342
L92939 4464
L92914 4513
L92890 4537
L92841 4562
L92719 4562
L92671 4537
L92646 4513
" />
</g>
<g style="fill:#000000; fill-opacity:0.0; 
stroke:#000000; stroke-width:39.3701; stroke-opacity:1; 
stroke-linecap:round; stroke-linejoin:round;">
</g>
<g style="fill:#000000; fill-opacity:0.0; 
stroke:#000000; stroke-width:59.0551; stroke-opacity:1; 
stroke-linecap:round; stroke-linejoin:round;">
<path d="M112575 4050
L112477 4050
L112429 4074
L112404 4099
L112356 4172
L112331 4269
L112331 4464
L112356 4513
L112380 4537
L112429 4562
L112526 4562
L112575 4537
L112599 4513
L112624 4464
L112624 4342
L112599 4294
L112575 4269
L112526 4245
L112429 4245
L112380 4269
L112356 4294
L112331 4342
" />
</g>
<g style="fill:#000000; fill-opacity:0.0; 
stroke:#000000; stroke-width:39.3701; stroke-opacity:1; 
stroke-linecap:round; stroke-linejoin:round;">
</g>
<g style="fill:#000000; fill-opacity:0.0; 
stroke:#000000; stroke-width:59.0551; stroke-opacity:1; 
stroke-linecap:round; stroke-linejoin:round;">
<path d="M23622 77955
L23622 78742
" />
</g>
<g style="fill:#000000; fill-opacity:0.0; 
stroke:#000000; stroke-width:39.3701; stroke-opacity:1; 
stroke-linecap:round; stroke-linejoin:round;">
</g>
<g style="fill:#000000; fill-opacity:0.0; 
stroke:#000000; stroke-width:59.0551; stroke-opacity:1; 
stroke-linecap:round; stroke-linejoin:round;">
<path d="M43307 77955
L43307 78742
" />
</g>
<g style="fill:#000000; fill-opacity:0.0; 
stroke:#000000; stroke-width:39.3701; stroke-opacity:1; 
stroke-linecap:round; stroke-linejoin:round;">
</g>
<g style="fill:#000000; fill-opacity:0.0; 
stroke:#000000; stroke-width:59.0551; stroke-opacity:1; 
stroke-linecap:round; stroke-linejoin:round;">
<path d="M62992 77955
L62992 78742
" />
</g>
<g style="fill:#000000; fill-opacity:0.0; 
stroke:#000000; stroke-width:39.3701; stroke-opacity:1; 
stroke-linecap:round; stroke-linejoin:round;">
</g>
<g style="fill:#000000; fill-opacity:0.0; 
stroke:#000000; stroke-width:59.0551; stroke-opacity:1; 
stroke-linecap:round; stroke-linejoin:round;">
<path d="M82677 77955
L82677 78742
" />
</g>
<g style="fill:#000000; fill-opacity:0.0; 
stroke:#000000; stroke-width:39.3701; stroke-opacity:1; 
stroke-linecap:round; stroke-linejoin:round;">
</g>
<g style="fill:#000000; fill-opacity:0.0; 
stroke:#000000; stroke-width:59.0551; stroke-opacity:1; 
stroke-linecap:round; stroke-linejoin:round;">
<path d="M102362 77955
L102362 78742
" />
</g>
<g style="fill:#000000; fill-opacity:0.0; 
stroke:#000000; stroke-width:39.3701; stroke-opacity:1; 
stroke-linecap:round; stroke-linejoin:round;">
</g>
<g style="fill:#000000; fill-opacity:0.0; 
stroke:#000000; stroke-width:59.0551; stroke-opacity:1; 
stroke-linecap:round; stroke-linejoin:round;">
<path d="M14199 78580
L13906 78580
" />
<path d="M14052 78580
L14052 78069
L14004 78142
L13955 78190
L13906 78215
" />
</g>
<g style="fill:#000000; fill-opacity:0.0; 
stroke:#000000; stroke-width:39.3701; stroke-opacity:1; 
stroke-linecap:round; stroke-linejoin:round;">
</g>
<g style="fill:#000000; fill-opacity:0.0; 
stroke:#000000; stroke-width:59.0551; stroke-opacity:1; 
stroke-linecap:round; stroke-linejoin:round;">
<path d="M33591 78117
L33615 78093
L33664 78069
L33786 78069
L33835 78093
L33859 78117
L33884 78166
L33884 78215
L33859 78288
L33567 78580
L33884 78580
" />
</g>
<g style="fill:#000000; fill-opacity:0.0; 
stroke:#000000; stroke-width:39.3701; stroke-opacity:1; 
stroke-linecap:round; stroke-linejoin:round;">
</g>
<g style="fill:#000000; fill-opacity:0.0; 
stroke:#000000; stroke-width:59.0551; stroke-opacity:1; 
stroke-linecap:round; stroke-linejoin:round;">
<path d="M53252 78069
L53569 78069
L53398 78263
L53471 78263
L53520 78288
L53544 78312
L53569 78361
L53569 78483
L53544 78532
L53520 78556
L53471 78580
L53325 78580
L53276 78556
L53252 78532
" />
</g>
<g style="fill:#000000; fill-opacity:0.0; 
stroke:#000000; stroke-width:39.3701; stroke-opacity:1; 
stroke-linecap:round; stroke-linejoin:round;">
</g>
<g style="fill:#000000; fill-opacity:0.0; 
stroke:#000000; stroke-width:59.0551; stroke-opacity:1; 
stroke-linecap:round; stroke-linejoin:round;">
<path d="M73205 78239
L73205 78580
" />
<path d="M73083 78044
L72961 78410
L73278 78410
" />
</g>
<g style="fill:#000000; fill-opacity:0.0; 
stroke:#000000; stroke-width:39.3701; stroke-opacity:1; 
stroke-linecap:round; stroke-linejoin:round;">
</g>
<g style="fill:#000000; fill-opacity:0.0; 
stroke:#000000; stroke-width:59.0551; stroke-opacity:1; 
stroke-linecap:round; stroke-linejoin:round;">
<path d="M92914 78069
L92671 78069
L92646 78312
L92671 78288
L92719 78263
L92841 78263
L92890 78288
L92914 78312
L92939 78361
L92939 78483
L92914 78532
L92890 78556
L92841 78580
L92719 78580
L92671 78556
L92646 78532
" />
</g>
<g style="fill:#000000; fill-opacity:0.0; 
stroke:#000000; stroke-width:39.3701; stroke-opacity:1; 
stroke-linecap:round; stroke-linejoin:round;">
</g>
<g style="fill:#000000; fill-opacity:0.0; 
stroke:#000000; stroke-width:59.0551; stroke-opacity:1; 
stroke-linecap:round; stroke-linejoin:round;">
<path d="M112575 78069
L112477 78069
L112429 78093
L112404 78117
L112356 78190
L112331 78288
L112331 78483
L112356 78532
L112380 78556
L112429 78580
L112526 78580
L112575 78556
L112599 78532
L112624 78483
L112624 78361
L112599 78312
L112575 78288
L112526 78263
L112429 78263
L112380 78288
L112356 78312
L112331 78361
" />
</g>
<g style="fill:#000000; fill-opacity:0.0; 
stroke:#000000; stroke-width:39.3701; stroke-opacity:1; 
stroke-linecap:round; stroke-linejoin:round;">
</g>
<g style="fill:#000000; fill-opacity:0.0; 
stroke:#000000; stroke-width:59.0551; stroke-opacity:1; 
stroke-linecap:round; stroke-linejoin:round;">
<path d="M3937 23622
L4724 23622
" />
</g>
<g style="fill:#000000; fill-opacity:0.0; 
stroke:#000000; stroke-width:39.3701; stroke-opacity:1; 
stroke-linecap:round; stroke-linejoin:round;">
</g>
<g style="fill:#000000; fill-opacity:0.0; 
stroke:#000000; stroke-width:59.0551; stroke-opacity:1; 
stroke-linecap:round; stroke-linejoin:round;">
<path d="M3937 43307
L4724 43307
" />
</g>
<g style="fill:#000000; fill-opacity:0.0; 
stroke:#000000; stroke-width:39.3701; stroke-opacity:1; 
stroke-linecap:round; stroke-linejoin:round;">
</g>
<g style="fill:#000000; fill-opacity:0.0; 
stroke:#000000; stroke-width:59.0551; stroke-opacity:1; 
stroke-linecap:round; stroke-linejoin:round;">
<path d="M3937 62992
L4724 62992
" />
</g>
<g style="fill:#000000; fill-opacity:0.0; 
stroke:#000000; stroke-width:39.3701; stroke-opacity:1; 
stroke-linecap:round; stroke-linejoin:round;">
</g>
<g style="fill:#000000; fill-opacity:0.0; 
stroke:#000000; stroke-width:59.0551; stroke-opacity:1; 
stroke-linecap:round; stroke-linejoin:round;">
<path d="M4208 13864
L4452 13864
" />
<path d="M4160 14011
L4330 13499
L4501 14011
" />
</g>
<g style="fill:#000000; fill-opacity:0.0; 
stroke:#000000; stroke-width:39.3701; stroke-opacity:1; 
stroke-linecap:round; stroke-linejoin:round;">
</g>
<g style="fill:#000000; fill-opacity:0.0; 
stroke:#000000; stroke-width:59.0551; stroke-opacity:1; 
stroke-linecap:round; stroke-linejoin:round;">
<path d="M4367 33428
L4440 33452
L4464 33476
L4489 33525
L4489 33598
L4464 33647
L4440 33671
L4391 33696
L4196 33696
L4196 33184
L4367 33184
L4416 33208
L4440 33233
L4464 33281
L4464 33330
L4440 33379
L4416 33403
L4367 33428
L4196 33428
" />
</g>
<g style="fill:#000000; fill-opacity:0.0; 
stroke:#000000; stroke-width:39.3701; stroke-opacity:1; 
stroke-linecap:round; stroke-linejoin:round;">
</g>
<g style="fill:#000000; fill-opacity:0.0; 
stroke:#000000; stroke-width:59.0551; stroke-opacity:1; 
stroke-linecap:round; stroke-linejoin:round;">
<path d="M4489 53332
L4464 53356
L4391 53381
L4342 53381
L4269 53356
L4221 53308
L4196 53259
L4172 53161
L4172 53088
L4196 52991
L4221 52942
L4269 52893
L4342 52869
L4391 52869
L4464 52893
L4489 52918
" />
</g>
<g style="fill:#000000; fill-opacity:0.0; 
stroke:#000000; stroke-width:39.3701; stroke-opacity:1; 
stroke-linecap:round; stroke-linejoin:round;">
</g>
<g style="fill:#000000; fill-opacity:0.0; 
stroke:#000000; stroke-width:59.0551; stroke-opacity:1; 
stroke-linecap:round; stroke-linejoin:round;">
<path d="M4196 73066
L4196 72554
L4318 72554
L4391 72578
L4440 72627
L4464 72676
L4489 72773
L4489 72846
L4464 72944
L4440 72993
L4391 73041
L4318 73066
L4196 73066
" />
</g>
<g style="fill:#000000; fill-opacity:0.0; 
stroke:#000000; stroke-width:39.3701; stroke-opacity:1; 
stroke-linecap:round; stroke-linejoin:round;">
</g>
<g style="fill:#000000; fill-opacity:0.0; 
stroke:#000000; stroke-width:59.0551; stroke-opacity:1; 
stroke-linecap:round; stroke-linejoin:round;">
<path d="M112992 23622
L112205 23622
" />
</g>
<g style="fill:#000000; fill-opacity:0.0; 
stroke:#000000; stroke-width:39.3701; stroke-opacity:1; 
stroke-linecap:round; stroke-linejoin:round;">
</g>
<g style="fill:#000000; fill-opacity:0.0; 
stroke:#000000; stroke-width:59.0551; stroke-opacity:1; 
stroke-linecap:round; stroke-linejoin:round;">
<path d="M112992 43307
L112205 43307
" />
</g>
<g style="fill:#000000; fill-opacity:0.0; 
stroke:#000000; stroke-width:39.3701; stroke-opacity:1; 
stroke-linecap:round; stroke-linejoin:round;">
</g>
<g style="fill:#000000; fill-opacity:0.0; 
stroke:#000000; stroke-width:59.0551; stroke-opacity:1; 
stroke-linecap:round; stroke-linejoin:round;">
<path d="M112992 62992
L112205 62992
" />
</g>
<g style="fill:#000000; fill-opacity:0.0; 
stroke:#000000; stroke-width:39.3701; stroke-opacity:1; 
stroke-linecap:round; stroke-linejoin:round;">
</g>
<g style="fill:#000000; fill-opacity:0.0; 
stroke:#000000; stroke-width:59.0551; stroke-opacity:1; 
stroke-linecap:round; stroke-linejoin:round;">
<path d="M112477 13864
L112721 13864
" />
<path d="M112428 14011
L112599 13499
L112769 14011
" />
</g>
<g style="fill:#000000; fill-opacity:0.0; 
stroke:#000000; stroke-width:39.3701; stroke-opacity:1; 
stroke-linecap:round; stroke-linejoin:round;">
</g>
<g style="fill:#000000; fill-opacity:0.0; 
stroke:#000000; stroke-width:59.0551; stroke-opacity:1; 
stroke-linecap:round; stroke-linejoin:round;">
<path d="M112635 33428
L112708 33452
L112733 33476
L112757 33525
L112757 33598
L112733 33647
L112708 33671
L112660 33696
L112465 33696
L112465 33184
L112635 33184
L112684 33208
L112708 33233
L112733 33281
L112733 33330
L112708 33379
L112684 33403
L112635 33428
L112465 33428
" />
</g>
<g style="fill:#000000; fill-opacity:0.0; 
stroke:#000000; stroke-width:39.3701; stroke-opacity:1; 
stroke-linecap:round; stroke-linejoin:round;">
</g>
<g style="fill:#000000; fill-opacity:0.0; 
stroke:#000000; stroke-width:59.0551; stroke-opacity:1; 
stroke-linecap:round; stroke-linejoin:round;">
<path d="M112757 53332
L112733 53356
L112660 53381
L112611 53381
L112538 53356
L112489 53308
L112465 53259
L112440 53161
L112440 53088
L112465 52991
L112489 52942
L112538 52893
L112611 52869
L112660 52869
L112733 52893
L112757 52918
" />
</g>
<g style="fill:#000000; fill-opacity:0.0; 
stroke:#000000; stroke-width:39.3701; stroke-opacity:1; 
stroke-linecap:round; stroke-linejoin:round;">
</g>
<g style="fill:#000000; fill-opacity:0.0; 
stroke:#000000; stroke-width:59.0551; stroke-opacity:1; 
stroke-linecap:round; stroke-linejoin:round;">
<path d="M112465 73066
L112465 72554
L112587 72554
L112660 72578
L112708 72627
L112733 72676
L112757 72773
L112757 72846
L112733 72944
L112708 72993
L112660 73041
L112587 73066
L112465 73066
" />
</g>
<g style="fill:#000000; fill-opacity:0.0; 
stroke:#000000; stroke-width:39.3701; stroke-opacity:1; 
stroke-linecap:round; stroke-linejoin:round;">
</g>
<g style="fill:#000000; fill-opacity:0.0; 
stroke:#000000; stroke-width:59.0551; stroke-opacity:1; 
stroke-linecap:round; stroke-linejoin:round;">
<path d="M78911 76293
L78911 75703
L79051 75703
L79136 75731
L79192 75787
L79220 75843
L79248 75956
L79248 76040
L79220 76153
L79192 76209
L79136 76265
L79051 76293
L78911 76293
" />
<path d="M79754 76293
L79754 75984
L79726 75928
L79670 75899
L79557 75899
L79501 75928
" />
<path d="M79754 76265
L79698 76293
L79557 76293
L79501 76265
L79473 76209
L79473 76153
L79501 76096
L79557 76068
L79698 76068
L79754 76040
" />
<path d="M79951 75899
L80176 75899
" />
<path d="M80036 75703
L80036 76209
L80064 76265
L80120 76293
L80176 76293
" />
<path d="M80598 76265
L80542 76293
L80429 76293
L80373 76265
L80345 76209
L80345 75984
L80373 75928
L80429 75899
L80542 75899
L80598 75928
L80626 75984
L80626 76040
L80345 76096
" />
<path d="M80879 76237
L80907 76265
L80879 76293
L80851 76265
L80879 76237
L80879 76293
" />
<path d="M80879 75928
L80907 75956
L80879 75984
L80851 75956
L80879 75928
L80879 75984
" />
<path d="M81582 75759
L81610 75731
L81667 75703
L81807 75703
L81863 75731
L81892 75759
L81920 75815
L81920 75871
L81892 75956
L81554 76293
L81920 76293
" />
<path d="M82285 75703
L82341 75703
L82398 75731
L82426 75759
L82454 75815
L82482 75928
L82482 76068
L82454 76181
L82426 76237
L82398 76265
L82341 76293
L82285 76293
L82229 76265
L82201 76237
L82173 76181
L82145 76068
L82145 75928
L82173 75815
L82201 75759
L82229 75731
L82285 75703
" />
<path d="M83045 76293
L82707 76293
" />
<path d="M82876 76293
L82876 75703
L82820 75787
L82763 75843
L82707 75871
" />
<path d="M83382 75956
L83326 75928
L83298 75899
L83269 75843
L83269 75815
L83298 75759
L83326 75731
L83382 75703
L83494 75703
L83551 75731
L83579 75759
L83607 75815
L83607 75843
L83579 75899
L83551 75928
L83494 75956
L83382 75956
L83326 75984
L83298 76012
L83269 76068
L83269 76181
L83298 76237
L83326 76265
L83382 76293
L83494 76293
L83551 76265
L83579 76237
L83607 76181
L83607 76068
L83579 76012
L83551 75984
L83494 75956
" />
<path d="M83860 76068
L84310 76068
" />
<path d="M84901 76293
L84563 76293
" />
<path d="M84732 76293
L84732 75703
L84676 75787
L84619 75843
L84563 75871
" />
<path d="M85126 75759
L85154 75731
L85210 75703
L85350 75703
L85407 75731
L85435 75759
L85463 75815
L85463 75871
L85435 75956
L85097 76293
L85463 76293
" />
<path d="M85716 76068
L86166 76068
" />
<path d="M86757 76293
L86419 76293
" />
<path d="M86588 76293
L86588 75703
L86532 75787
L86475 75843
L86419 75871
" />
<path d="M87263 75899
L87263 76293
" />
<path d="M87122 75674
L86982 76096
L87347 76096
" />
</g>
<g style="fill:#000000; fill-opacity:0.0; 
stroke:#000000; stroke-width:39.3701; stroke-opacity:1; 
stroke-linecap:round; stroke-linejoin:round;">
</g>
<g style="fill:#000000; fill-opacity:0.0; 
stroke:#000000; stroke-width:59.0551; stroke-opacity:1; 
stroke-linecap:round; stroke-linejoin:round;">
<path d="M69685 76577
L112205 76577
" />
</g>
<g style="fill:#000000; fill-opacity:0.0; 
stroke:#000000; stroke-width:39.3701; stroke-opacity:1; 
stroke-linecap:round; stroke-linejoin:round;">
</g>
<g style="fill:#000000; fill-opacity:0.0; 
stroke:#000000; stroke-width:59.0551; stroke-opacity:1; 
stroke-linecap:round; stroke-linejoin:round;">
<path d="M70249 77395
L70249 76805
" />
<path d="M70587 77395
L70334 77058
" />
<path d="M70587 76805
L70249 77142
" />
<path d="M70840 77395
L70840 77002
" />
<path d="M70840 76805
L70812 76833
L70840 76861
L70868 76833
L70840 76805
L70840 76861
" />
<path d="M71458 77339
L71430 77367
L71346 77395
L71290 77395
L71205 77367
L71149 77311
L71121 77255
L71093 77142
L71093 77058
L71121 76946
L71149 76889
L71205 76833
L71290 76805
L71346 76805
L71430 76833
L71458 76861
" />
<path d="M71965 77395
L71965 77086
L71937 77030
L71880 77002
L71768 77002
L71712 77030
" />
<path d="M71965 77367
L71908 77395
L71768 77395
L71712 77367
L71683 77311
L71683 77255
L71712 77199
L71768 77171
L71908 77171
L71965 77142
" />
<path d="M72499 77395
L72499 76805
" />
<path d="M72499 77367
L72443 77395
L72330 77395
L72274 77367
L72246 77339
L72218 77283
L72218 77114
L72246 77058
L72274 77030
L72330 77002
L72443 77002
L72499 77030
" />
<path d="M73230 77086
L73427 77086
" />
<path d="M73511 77395
L73230 77395
L73230 76805
L73511 76805
" />
<path d="M73764 77339
L73793 77367
L73764 77395
L73736 77367
L73764 77339
L73764 77395
" />
<path d="M74046 77395
L74046 76805
L74186 76805
L74271 76833
L74327 76889
L74355 76946
L74383 77058
L74383 77142
L74355 77255
L74327 77311
L74271 77367
L74186 77395
L74046 77395
" />
<path d="M74636 77339
L74664 77367
L74636 77395
L74608 77367
L74636 77339
L74636 77395
" />
<path d="M74889 77227
L75171 77227
" />
<path d="M74833 77395
L75030 76805
L75227 77395
" />
<path d="M75424 77339
L75452 77367
L75424 77395
L75395 77367
L75424 77339
L75424 77395
" />
<path d="M76605 77395
L76605 76805
" />
<path d="M76661 77171
L76830 77395
" />
<path d="M76830 77002
L76605 77227
" />
<path d="M77083 77395
L77083 77002
" />
<path d="M77083 76805
L77055 76833
L77083 76861
L77111 76833
L77083 76805
L77083 76861
" />
<path d="M77617 77367
L77561 77395
L77448 77395
L77392 77367
L77364 77339
L77336 77283
L77336 77114
L77364 77058
L77392 77030
L77448 77002
L77561 77002
L77617 77030
" />
<path d="M78123 77395
L78123 77086
L78095 77030
L78039 77002
L77926 77002
L77870 77030
" />
<path d="M78123 77367
L78067 77395
L77926 77395
L77870 77367
L77842 77311
L77842 77255
L77870 77199
L77926 77171
L78067 77171
L78123 77142
" />
<path d="M78658 77395
L78658 76805
" />
<path d="M78658 77367
L78601 77395
L78489 77395
L78433 77367
L78404 77339
L78376 77283
L78376 77114
L78404 77058
L78433 77030
L78489 77002
L78601 77002
L78658 77030
" />
<path d="M79642 76805
L79529 76805
L79473 76833
L79445 76861
L79389 76946
L79361 77058
L79361 77283
L79389 77339
L79417 77367
L79473 77395
L79586 77395
L79642 77367
L79670 77339
L79698 77283
L79698 77142
L79670 77086
L79642 77058
L79586 77030
L79473 77030
L79417 77058
L79389 77086
L79361 77142
" />
<path d="M79951 77339
L79979 77367
L79951 77395
L79923 77367
L79951 77339
L79951 77395
" />
<path d="M80345 76805
L80401 76805
L80457 76833
L80485 76861
L80514 76917
L80542 77030
L80542 77171
L80514 77283
L80485 77339
L80457 77367
L80401 77395
L80345 77395
L80289 77367
L80260 77339
L80232 77283
L80204 77171
L80204 77030
L80232 76917
L80260 76861
L80289 76833
L80345 76805
" />
<path d="M80795 77339
L80823 77367
L80795 77395
L80767 77367
L80795 77339
L80795 77395
" />
<path d="M81188 76805
L81245 76805
L81301 76833
L81329 76861
L81357 76917
L81385 77030
L81385 77171
L81357 77283
L81329 77339
L81301 77367
L81245 77395
L81188 77395
L81132 77367
L81104 77339
L81076 77283
L81048 77171
L81048 77030
L81076 76917
L81104 76861
L81132 76833
L81188 76805
" />
<path d="M81638 77171
L82088 77171
" />
<path d="M82370 77395
L82370 77002
" />
<path d="M82370 77114
L82398 77058
L82426 77030
L82482 77002
L82538 77002
" />
<path d="M82988 77367
L82932 77395
L82820 77395
L82763 77367
L82735 77339
L82707 77283
L82707 77114
L82735 77058
L82763 77030
L82820 77002
L82932 77002
L82988 77030
" />
<path d="M83551 77395
L83213 77395
" />
<path d="M83382 77395
L83382 76805
L83326 76889
L83269 76946
L83213 76974
" />
<path d="M83804 77171
L84254 77171
" />
<path d="M84788 77002
L84788 77395
" />
<path d="M84535 77002
L84535 77311
L84563 77367
L84619 77395
L84704 77395
L84760 77367
L84788 77339
" />
<path d="M85069 77002
L85069 77395
" />
<path d="M85069 77058
L85097 77030
L85154 77002
L85238 77002
L85294 77030
L85322 77086
L85322 77395
" />
<path d="M85604 77395
L85604 76805
" />
<path d="M85660 77171
L85829 77395
" />
<path d="M85829 77002
L85604 77227
" />
<path d="M86082 77002
L86082 77395
" />
<path d="M86082 77058
L86110 77030
L86166 77002
L86250 77002
L86307 77030
L86335 77086
L86335 77395
" />
<path d="M86700 77395
L86644 77367
L86616 77339
L86588 77283
L86588 77114
L86616 77058
L86644 77030
L86700 77002
L86785 77002
L86841 77030
L86869 77058
L86897 77114
L86897 77283
L86869 77339
L86841 77367
L86785 77395
L86700 77395
" />
<path d="M87094 77002
L87206 77395
L87319 77114
L87431 77395
L87544 77002
" />
<path d="M87769 77002
L87769 77395
" />
<path d="M87769 77058
L87797 77030
L87853 77002
L87938 77002
L87994 77030
L88022 77086
L88022 77395
" />
<path d="M88303 77171
L88753 77171
" />
<path d="M89034 77395
L89034 76805
" />
<path d="M89034 77030
L89091 77002
L89203 77002
L89259 77030
L89287 77058
L89316 77114
L89316 77283
L89287 77339
L89259 77367
L89203 77395
L89091 77395
L89034 77367
" />
<path d="M89822 77002
L89822 77395
" />
<path d="M89681 76777
L89541 77199
L89906 77199
" />
<path d="M90159 77395
L90272 77395
L90328 77367
L90356 77339
L90412 77255
L90440 77142
L90440 76917
L90412 76861
L90384 76833
L90328 76805
L90215 76805
L90159 76833
L90131 76861
L90103 76917
L90103 77058
L90131 77114
L90159 77142
L90215 77171
L90328 77171
L90384 77142
L90412 77114
L90440 77058
" />
<path d="M91003 77395
L90665 77395
" />
<path d="M90834 77395
L90834 76805
L90778 76889
L90722 76946
L90665 76974
" />
<path d="M91368 76805
L91425 76805
L91481 76833
L91509 76861
L91537 76917
L91565 77030
L91565 77171
L91537 77283
L91509 77339
L91481 77367
L91425 77395
L91368 77395
L91312 77367
L91284 77339
L91256 77283
L91228 77171
L91228 77030
L91256 76917
L91284 76861
L91312 76833
L91368 76805
" />
<path d="M92072 76805
L91959 76805
L91903 76833
L91875 76861
L91818 76946
L91790 77058
L91790 77283
L91818 77339
L91847 77367
L91903 77395
L92015 77395
L92072 77367
L92100 77339
L92128 77283
L92128 77142
L92100 77086
L92072 77058
L92015 77030
L91903 77030
L91847 77058
L91818 77086
L91790 77142
" />
<path d="M92662 76805
L92381 76805
L92353 77086
L92381 77058
L92437 77030
L92578 77030
L92634 77058
L92662 77086
L92690 77142
L92690 77283
L92662 77339
L92634 77367
L92578 77395
L92437 77395
L92381 77367
L92353 77339
" />
<path d="M92803 76644
L93365 76644
" />
<path d="M93028 77058
L92971 77030
L92943 77002
L92915 76946
L92915 76917
L92943 76861
L92971 76833
L93028 76805
L93140 76805
L93196 76833
L93224 76861
L93253 76917
L93253 76946
L93224 77002
L93196 77030
L93140 77058
L93028 77058
L92971 77086
L92943 77114
L92915 77171
L92915 77283
L92943 77339
L92971 77367
L93028 77395
L93140 77395
L93196 77367
L93224 77339
L93253 77283
L93253 77171
L93224 77114
L93196 77086
L93140 77058
" />
<path d="M93365 76644
L93928 76644
" />
<path d="M93759 77002
L93759 77395
" />
<path d="M93618 76777
L93478 77199
L93843 77199
" />
<path d="M94321 77002
L94321 77395
" />
<path d="M94068 77002
L94068 77311
L94096 77367
L94153 77395
L94237 77395
L94293 77367
L94321 77339
" />
<path d="M94602 77395
L94602 76805
" />
<path d="M94602 77030
L94659 77002
L94771 77002
L94827 77030
L94856 77058
L94884 77114
L94884 77283
L94856 77339
L94827 77367
L94771 77395
L94659 77395
L94602 77367
" />
<path d="M95390 77002
L95390 77395
" />
<path d="M95137 77002
L95137 77311
L95165 77367
L95221 77395
L95305 77395
L95362 77367
L95390 77339
" />
<path d="M95671 77002
L95671 77395
" />
<path d="M95671 77058
L95699 77030
L95755 77002
L95840 77002
L95896 77030
L95924 77086
L95924 77395
" />
<path d="M96121 77002
L96346 77002
" />
<path d="M96205 76805
L96205 77311
L96233 77367
L96290 77395
L96346 77395
" />
<path d="M96796 77002
L96796 77395
" />
<path d="M96543 77002
L96543 77311
L96571 77367
L96627 77395
L96712 77395
L96768 77367
L96796 77339
" />
<path d="M97386 77395
L97049 77395
" />
<path d="M97218 77395
L97218 76805
L97162 76889
L97105 76946
L97049 76974
" />
<path d="M97724 77058
L97668 77030
L97640 77002
L97611 76946
L97611 76917
L97640 76861
L97668 76833
L97724 76805
L97836 76805
L97893 76833
L97921 76861
L97949 76917
L97949 76946
L97921 77002
L97893 77030
L97836 77058
L97724 77058
L97668 77086
L97640 77114
L97611 77171
L97611 77283
L97640 77339
L97668 77367
L97724 77395
L97836 77395
L97893 77367
L97921 77339
L97949 77283
L97949 77171
L97921 77114
L97893 77086
L97836 77058
" />
<path d="M98202 77339
L98230 77367
L98202 77395
L98174 77367
L98202 77339
L98202 77395
" />
<path d="M98596 76805
L98652 76805
L98708 76833
L98736 76861
L98764 76917
L98793 77030
L98793 77171
L98764 77283
L98736 77339
L98708 77367
L98652 77395
L98596 77395
L98539 77367
L98511 77339
L98483 77283
L98455 77171
L98455 77030
L98483 76917
L98511 76861
L98539 76833
L98596 76805
" />
<path d="M99299 77002
L99299 77395
" />
<path d="M99158 76777
L99018 77199
L99383 77199
" />
<path d="M99608 77339
L99636 77367
L99608 77395
L99580 77367
L99608 77339
L99608 77395
" />
<path d="M100199 77395
L99861 77395
" />
<path d="M100030 77395
L100030 76805
L99974 76889
L99917 76946
L99861 76974
" />
</g>
<g style="fill:#000000; fill-opacity:0.0; 
stroke:#000000; stroke-width:39.3701; stroke-opacity:1; 
stroke-linecap:round; stroke-linejoin:round;">
</g>
<g style="fill:#000000; fill-opacity:0.0; 
stroke:#000000; stroke-width:59.0551; stroke-opacity:1; 
stroke-linecap:round; stroke-linejoin:round;">
<path d="M69685 75396
L112205 75396
" />
</g>
<g style="fill:#000000; fill-opacity:0.0; 
stroke:#000000; stroke-width:39.3701; stroke-opacity:1; 
stroke-linecap:round; stroke-linejoin:round;">
</g>
<g style="fill:#000000; fill-opacity:0.0; 
stroke:#000000; stroke-width:118.11; stroke-opacity:1; 
stroke-linecap:round; stroke-linejoin:round;">
<path d="M104099 76293
L103902 76012
" />
<path d="M103761 76293
L103761 75703
L103986 75703
L104042 75731
L104070 75759
L104099 75815
L104099 75899
L104070 75956
L104042 75984
L103986 76012
L103761 76012
" />
<path d="M104577 76265
L104520 76293
L104408 76293
L104352 76265
L104323 76209
L104323 75984
L104352 75928
L104408 75899
L104520 75899
L104577 75928
L104605 75984
L104605 76040
L104323 76096
" />
<path d="M104802 75899
L104942 76293
L105083 75899
" />
<path d="M105308 76237
L105336 76265
L105308 76293
L105280 76265
L105308 76237
L105308 76293
" />
<path d="M105308 75928
L105336 75956
L105308 75984
L105280 75956
L105308 75928
L105308 75984
" />
<path d="M106151 75703
L106208 75703
L106264 75731
L106292 75759
L106320 75815
L106348 75928
L106348 76068
L106320 76181
L106292 76237
L106264 76265
L106208 76293
L106151 76293
L106095 76265
L106067 76237
L106039 76181
L106011 76068
L106011 75928
L106039 75815
L106067 75759
L106095 75731
L106151 75703
" />
<path d="M106601 76237
L106629 76265
L106601 76293
L106573 76265
L106601 76237
L106601 76293
" />
<path d="M107192 76293
L106854 76293
" />
<path d="M107023 76293
L107023 75703
L106967 75787
L106911 75843
L106854 75871
" />
<path d="M107445 76237
L107473 76265
L107445 76293
L107417 76265
L107445 76237
L107445 76293
" />
<path d="M107839 75703
L107895 75703
L107951 75731
L107979 75759
L108007 75815
L108036 75928
L108036 76068
L108007 76181
L107979 76237
L107951 76265
L107895 76293
L107839 76293
L107782 76265
L107754 76237
L107726 76181
L107698 76068
L107698 75928
L107726 75815
L107754 75759
L107782 75731
L107839 75703
" />
</g>
<g style="fill:#000000; fill-opacity:0.0; 
stroke:#000000; stroke-width:39.3701; stroke-opacity:1; 
stroke-linecap:round; stroke-linejoin:round;">
</g>
<g style="fill:#000000; fill-opacity:0.0; 
stroke:#000000; stroke-width:59.0551; stroke-opacity:1; 
stroke-linecap:round; stroke-linejoin:round;">
<path d="M70221 76265
L70305 76293
L70446 76293
L70502 76265
L70530 76237
L70559 76181
L70559 76124
L70530 76068
L70502 76040
L70446 76012
L70334 75984
L70277 75956
L70249 75928
L70221 75871
L70221 75815
L70249 75759
L70277 75731
L70334 75703
L70474 75703
L70559 75731
" />
<path d="M70812 76293
L70812 75899
" />
<path d="M70812 75703
L70784 75731
L70812 75759
L70840 75731
L70812 75703
L70812 75759
" />
<path d="M71037 75899
L71346 75899
L71037 76293
L71346 76293
" />
<path d="M71796 76265
L71740 76293
L71627 76293
L71571 76265
L71543 76209
L71543 75984
L71571 75928
L71627 75899
L71740 75899
L71796 75928
L71824 75984
L71824 76040
L71543 76096
" />
<path d="M72077 76237
L72105 76265
L72077 76293
L72049 76265
L72077 76237
L72077 76293
" />
<path d="M72077 75928
L72105 75956
L72077 75984
L72049 75956
L72077 75928
L72077 75984
" />
<path d="M72780 76124
L73061 76124
" />
<path d="M72724 76293
L72921 75703
L73118 76293
" />
<path d="M73568 75899
L73568 76293
" />
<path d="M73427 75674
L73286 76096
L73652 76096
" />
</g>
<g style="fill:#000000; fill-opacity:0.0; 
stroke:#000000; stroke-width:39.3701; stroke-opacity:1; 
stroke-linecap:round; stroke-linejoin:round;">
</g>
<g style="fill:#000000; fill-opacity:0.0; 
stroke:#000000; stroke-width:59.0551; stroke-opacity:1; 
stroke-linecap:round; stroke-linejoin:round;">
<path d="M103714 77395
L103714 76805
" />
<path d="M104248 77395
L104248 76805
" />
<path d="M104248 77367
L104192 77395
L104079 77395
L104023 77367
L103995 77339
L103967 77283
L103967 77114
L103995 77058
L104023 77030
L104079 77002
L104192 77002
L104248 77030
" />
<path d="M104529 77339
L104557 77367
L104529 77395
L104501 77367
L104529 77339
L104529 77395
" />
<path d="M104529 77030
L104557 77058
L104529 77086
L104501 77058
L104529 77030
L104529 77086
" />
<path d="M105570 77395
L105232 77395
" />
<path d="M105401 77395
L105401 76805
L105345 76889
L105289 76946
L105232 76974
" />
<path d="M106245 76777
L105739 77536
" />
<path d="M106751 77395
L106413 77395
" />
<path d="M106582 77395
L106582 76805
L106526 76889
L106470 76946
L106413 76974
" />
</g>
<g style="fill:#000000; fill-opacity:0.0; 
stroke:#000000; stroke-width:39.3701; stroke-opacity:1; 
stroke-linecap:round; stroke-linejoin:round;">
</g>
<g style="fill:#000000; fill-opacity:0.0; 
stroke:#000000; stroke-width:59.0551; stroke-opacity:1; 
stroke-linecap:round; stroke-linejoin:round;">
<path d="M69685 73821
L112205 73821
" />
</g>
<g style="fill:#000000; fill-opacity:0.0; 
stroke:#000000; stroke-width:39.3701; stroke-opacity:1; 
stroke-linecap:round; stroke-linejoin:round;">
</g>
<g style="fill:#000000; fill-opacity:0.0; 
stroke:#000000; stroke-width:157.48; stroke-opacity:1; 
stroke-linecap:round; stroke-linejoin:round;">
<path d="M70360 74099
L70810 74099
" />
<path d="M70486 74886
L70585 74099
" />
<path d="M70974 74886
L71039 74361
" />
<path d="M71072 74099
L71030 74136
L71063 74174
L71105 74136
L71072 74099
L71063 74174
" />
<path d="M71302 74361
L71602 74361
" />
<path d="M71447 74099
L71363 74774
L71391 74849
L71461 74886
L71536 74886
" />
<path d="M71911 74886
L71841 74849
L71813 74774
L71897 74099
" />
<path d="M72516 74849
L72436 74886
L72286 74886
L72216 74849
L72187 74774
L72225 74474
L72272 74399
L72352 74361
L72501 74361
L72572 74399
L72600 74474
L72591 74549
L72206 74624
" />
<path d="M72895 74811
L72928 74849
L72886 74886
L72853 74849
L72895 74811
L72886 74886
" />
<path d="M72947 74399
L72980 74436
L72937 74474
L72905 74436
L72947 74399
L72937 74474
" />
<path d="M74236 74886
L73861 74886
L73959 74099
" />
<path d="M74484 74099
L74648 74886
L75009 74099
" />
<path d="M75173 74886
L75271 74099
L75459 74099
L75567 74136
L75632 74211
L75660 74286
L75679 74436
L75665 74549
L75609 74699
L75562 74774
L75478 74849
L75361 74886
L75173 74886
" />
<path d="M75928 74849
L76035 74886
L76223 74886
L76303 74849
L76345 74811
L76392 74736
L76401 74661
L76373 74586
L76340 74549
L76270 74511
L76124 74474
L76054 74436
L76021 74399
L75993 74324
L76003 74249
L76049 74174
L76092 74136
L76171 74099
L76359 74099
L76467 74136
" />
<path d="M77713 74361
L77648 74886
" />
<path d="M77563 74061
L77306 74624
L77793 74624
" />
<path d="M78402 74849
L78323 74886
L78173 74886
L78102 74849
L78070 74811
L78041 74736
L78070 74511
L78116 74436
L78159 74399
L78238 74361
L78388 74361
L78459 74399
" />
<path d="M78735 74886
L78834 74099
" />
<path d="M79073 74886
L79124 74474
L79096 74399
L79026 74361
L78913 74361
L78834 74399
L78791 74436
" />
<path d="M80497 74886
L80282 74511
" />
<path d="M80047 74886
L80146 74099
L80446 74099
L80516 74136
L80549 74174
L80577 74249
L80563 74361
L80516 74436
L80474 74474
L80394 74511
L80094 74511
" />
<path d="M81139 74849
L81060 74886
L80910 74886
L80840 74849
L80811 74774
L80849 74474
L80896 74399
L80975 74361
L81125 74361
L81196 74399
L81224 74474
L81214 74549
L80830 74624
" />
<path d="M81852 74849
L81772 74886
L81622 74886
L81552 74849
L81519 74811
L81491 74736
L81519 74511
L81566 74436
L81608 74399
L81688 74361
L81838 74361
L81908 74399
" />
<path d="M82489 74849
L82410 74886
L82260 74886
L82189 74849
L82161 74774
L82199 74474
L82246 74399
L82325 74361
L82475 74361
L82546 74399
L82574 74474
L82564 74549
L82180 74624
" />
<path d="M82860 74886
L82925 74361
" />
<path d="M82958 74099
L82916 74136
L82949 74174
L82991 74136
L82958 74099
L82949 74174
" />
<path d="M83225 74361
L83347 74886
L83600 74361
" />
<path d="M84139 74849
L84059 74886
L83909 74886
L83839 74849
L83811 74774
L83849 74474
L83895 74399
L83975 74361
L84125 74361
L84195 74399
L84223 74474
L84214 74549
L83830 74624
" />
<path d="M84509 74886
L84575 74361
" />
<path d="M84556 74511
L84603 74436
L84645 74399
L84725 74361
L84800 74361
" />
<path d="M85597 74886
L85695 74099
L85887 74661
L86220 74099
L86122 74886
" />
<path d="M86497 74886
L86562 74361
" />
<path d="M86595 74099
L86553 74136
L86586 74174
L86628 74136
L86595 74099
L86586 74174
" />
<path d="M86937 74361
L86872 74886
" />
<path d="M86928 74436
L86970 74399
L87050 74361
L87162 74361
L87232 74399
L87261 74474
L87209 74886
" />
<path d="M87584 74886
L87650 74361
" />
<path d="M87682 74099
L87640 74136
L87673 74174
L87715 74136
L87682 74099
L87673 74174
" />
</g>
<g style="fill:#000000; fill-opacity:0.0; 
stroke:#000000; stroke-width:39.3701; stroke-opacity:1; 
stroke-linecap:round; stroke-linejoin:round;">
</g>
<g style="fill:#000000; fill-opacity:0.0; 
stroke:#000000; stroke-width:59.0551; stroke-opacity:1; 
stroke-linecap:round; stroke-linejoin:round;">
<path d="M70446 73070
L70249 73070
" />
<path d="M70249 73380
L70249 72789
L70530 72789
" />
<path d="M70755 73380
L70755 72986
" />
<path d="M70755 72789
L70727 72817
L70755 72845
L70784 72817
L70755 72789
L70755 72845
" />
<path d="M71121 73380
L71065 73352
L71037 73295
L71037 72789
" />
<path d="M71571 73352
L71515 73380
L71402 73380
L71346 73352
L71318 73295
L71318 73070
L71346 73014
L71402 72986
L71515 72986
L71571 73014
L71599 73070
L71599 73127
L71318 73183
" />
<path d="M71852 73323
L71880 73352
L71852 73380
L71824 73352
L71852 73323
L71852 73380
" />
<path d="M71852 73014
L71880 73042
L71852 73070
L71824 73042
L71852 73014
L71852 73070
" />
<path d="M72583 73380
L72583 72986
" />
<path d="M72583 73099
L72611 73042
L72640 73014
L72696 72986
L72752 72986
" />
<path d="M73174 73352
L73118 73380
L73005 73380
L72949 73352
L72921 73295
L72921 73070
L72949 73014
L73005 72986
L73118 72986
L73174 73014
L73202 73070
L73202 73127
L72921 73183
" />
<path d="M73708 73352
L73652 73380
L73539 73380
L73483 73352
L73455 73323
L73427 73267
L73427 73099
L73455 73042
L73483 73014
L73539 72986
L73652 72986
L73708 73014
" />
<path d="M74186 73352
L74130 73380
L74018 73380
L73961 73352
L73933 73295
L73933 73070
L73961 73014
L74018 72986
L74130 72986
L74186 73014
L74214 73070
L74214 73127
L73933 73183
" />
<path d="M74467 73380
L74467 72986
" />
<path d="M74467 72789
L74439 72817
L74467 72845
L74496 72817
L74467 72789
L74467 72845
" />
<path d="M74692 72986
L74833 73380
L74974 72986
" />
<path d="M75424 73352
L75367 73380
L75255 73380
L75199 73352
L75171 73295
L75171 73070
L75199 73014
L75255 72986
L75367 72986
L75424 73014
L75452 73070
L75452 73127
L75171 73183
" />
<path d="M75705 73380
L75705 72986
" />
<path d="M75705 73099
L75733 73042
L75761 73014
L75817 72986
L75874 72986
" />
<path d="M75930 73436
L76380 73436
" />
<path d="M76520 73380
L76520 72986
" />
<path d="M76520 73042
L76548 73014
L76605 72986
L76689 72986
L76745 73014
L76773 73070
L76773 73380
" />
<path d="M76773 73070
L76802 73014
L76858 72986
L76942 72986
L76998 73014
L77027 73070
L77027 73380
" />
<path d="M77308 73380
L77308 72986
" />
<path d="M77308 72789
L77280 72817
L77308 72845
L77336 72817
L77308 72789
L77308 72845
" />
<path d="M77589 72986
L77589 73380
" />
<path d="M77589 73042
L77617 73014
L77673 72986
L77758 72986
L77814 73014
L77842 73070
L77842 73380
" />
<path d="M78123 73380
L78123 72986
" />
<path d="M78123 72789
L78095 72817
L78123 72845
L78151 72817
L78123 72789
L78123 72845
" />
<path d="M78404 73323
L78433 73352
L78404 73380
L78376 73352
L78404 73323
L78404 73380
" />
<path d="M78686 73380
L78686 72789
" />
<path d="M78742 73155
L78911 73380
" />
<path d="M78911 72986
L78686 73211
" />
<path d="M79164 73380
L79164 72986
" />
<path d="M79164 72789
L79136 72817
L79164 72845
L79192 72817
L79164 72789
L79164 72845
" />
<path d="M79698 73352
L79642 73380
L79529 73380
L79473 73352
L79445 73323
L79417 73267
L79417 73099
L79445 73042
L79473 73014
L79529 72986
L79642 72986
L79698 73014
" />
<path d="M80204 73380
L80204 73070
L80176 73014
L80120 72986
L80007 72986
L79951 73014
" />
<path d="M80204 73352
L80148 73380
L80007 73380
L79951 73352
L79923 73295
L79923 73239
L79951 73183
L80007 73155
L80148 73155
L80204 73127
" />
<path d="M80739 73380
L80739 72789
" />
<path d="M80739 73352
L80682 73380
L80570 73380
L80514 73352
L80485 73323
L80457 73267
L80457 73099
L80485 73042
L80514 73014
L80570 72986
L80682 72986
L80739 73014
" />
<path d="M80879 73436
L81329 73436
" />
<path d="M81470 72986
L81470 73577
" />
<path d="M81470 73014
L81526 72986
L81638 72986
L81695 73014
L81723 73042
L81751 73099
L81751 73267
L81723 73323
L81695 73352
L81638 73380
L81526 73380
L81470 73352
" />
<path d="M82257 73352
L82201 73380
L82088 73380
L82032 73352
L82004 73323
L81976 73267
L81976 73099
L82004 73042
L82032 73014
L82088 72986
L82201 72986
L82257 73014
" />
<path d="M82510 73380
L82510 72789
" />
<path d="M82510 73014
L82566 72986
L82679 72986
L82735 73014
L82763 73042
L82791 73099
L82791 73267
L82763 73323
L82735 73352
L82679 73380
L82566 73380
L82510 73352
" />
</g>
<g style="fill:#000000; fill-opacity:0.0; 
stroke:#000000; stroke-width:39.3701; stroke-opacity:1; 
stroke-linecap:round; stroke-linejoin:round;">
</g>
<g style="fill:#000000; fill-opacity:0.0; 
stroke:#000000; stroke-width:59.0551; stroke-opacity:1; 
stroke-linecap:round; stroke-linejoin:round;">
<path d="M69685 71459
L112205 71459
" />
</g>
<g style="fill:#000000; fill-opacity:0.0; 
stroke:#000000; stroke-width:39.3701; stroke-opacity:1; 
stroke-linecap:round; stroke-linejoin:round;">
</g>
<g style="fill:#000000; fill-opacity:0.0; 
stroke:#000000; stroke-width:59.0551; stroke-opacity:1; 
stroke-linecap:round; stroke-linejoin:round;">
<path d="M70221 72289
L70305 72317
L70446 72317
L70502 72289
L70530 72260
L70559 72204
L70559 72148
L70530 72092
L70502 72064
L70446 72036
L70334 72007
L70277 71979
L70249 71951
L70221 71895
L70221 71839
L70249 71782
L70277 71754
L70334 71726
L70474 71726
L70559 71754
" />
<path d="M70812 72317
L70812 71726
" />
<path d="M71065 72317
L71065 72007
L71037 71951
L70980 71923
L70896 71923
L70840 71951
L70812 71979
" />
<path d="M71571 72289
L71515 72317
L71402 72317
L71346 72289
L71318 72232
L71318 72007
L71346 71951
L71402 71923
L71515 71923
L71571 71951
L71599 72007
L71599 72064
L71318 72120
" />
<path d="M72077 72289
L72021 72317
L71908 72317
L71852 72289
L71824 72232
L71824 72007
L71852 71951
L71908 71923
L72021 71923
L72077 71951
L72105 72007
L72105 72064
L71824 72120
" />
<path d="M72274 71923
L72499 71923
" />
<path d="M72358 71726
L72358 72232
L72386 72289
L72443 72317
L72499 72317
" />
<path d="M72696 72260
L72724 72289
L72696 72317
L72668 72289
L72696 72260
L72696 72317
" />
<path d="M72696 71951
L72724 71979
L72696 72007
L72668 71979
L72696 71951
L72696 72007
" />
</g>
<g style="fill:#000000; fill-opacity:0.0; 
stroke:#000000; stroke-width:39.3701; stroke-opacity:1; 
stroke-linecap:round; stroke-linejoin:round;">
</g>
<g style="fill:#000000; fill-opacity:0.0; 
stroke:#000000; stroke-width:118.11; stroke-opacity:1; 
stroke-linecap:round; stroke-linejoin:round;">
<path d="M70268 71108
L70325 71136
L70437 71136
L70493 71108
L70521 71051
L70521 71023
L70493 70967
L70437 70939
L70353 70939
L70296 70911
L70268 70854
L70268 70826
L70296 70770
L70353 70742
L70437 70742
L70493 70770
" />
<path d="M70775 70911
L71224 70911
" />
<path d="M71590 71136
L71534 71108
L71506 71051
L71506 70545
" />
<path d="M71815 71136
L71815 70742
" />
<path d="M71815 70545
L71787 70573
L71815 70601
L71843 70573
L71815 70545
L71815 70601
" />
<path d="M72349 70742
L72349 71220
L72321 71276
L72293 71304
L72237 71332
L72153 71332
L72096 71304
" />
<path d="M72349 71108
L72293 71136
L72181 71136
L72124 71108
L72096 71079
L72068 71023
L72068 70854
L72096 70798
L72124 70770
L72181 70742
L72293 70742
L72349 70770
" />
<path d="M72631 71136
L72631 70545
" />
<path d="M72884 71136
L72884 70826
L72856 70770
L72799 70742
L72715 70742
L72659 70770
L72631 70798
" />
<path d="M73081 70742
L73305 70742
" />
<path d="M73165 70545
L73165 71051
L73193 71108
L73249 71136
L73305 71136
" />
<path d="M73502 71079
L73530 71108
L73502 71136
L73474 71108
L73502 71079
L73502 71136
" />
<path d="M74009 71108
L73952 71136
L73840 71136
L73784 71108
L73755 71051
L73755 70826
L73784 70770
L73840 70742
L73952 70742
L74009 70770
L74037 70826
L74037 70883
L73755 70939
" />
<path d="M74543 70742
L74543 71136
" />
<path d="M74290 70742
L74290 71051
L74318 71108
L74374 71136
L74458 71136
L74515 71108
L74543 71079
" />
</g>
<g style="fill:#000000; fill-opacity:0.0; 
stroke:#000000; stroke-width:39.3701; stroke-opacity:1; 
stroke-linecap:round; stroke-linejoin:round;">
</g>
<g style="fill:#000000; fill-opacity:0.0; 
stroke:#000000; stroke-width:59.0551; stroke-opacity:1; 
stroke-linecap:round; stroke-linejoin:round;">
<path d="M70221 69926
L70305 69955
L70446 69955
L70502 69926
L70530 69898
L70559 69842
L70559 69786
L70530 69730
L70502 69701
L70446 69673
L70334 69645
L70277 69617
L70249 69589
L70221 69533
L70221 69476
L70249 69420
L70277 69392
L70334 69364
L70474 69364
L70559 69392
" />
<path d="M70727 69561
L70952 69561
" />
<path d="M70812 69364
L70812 69870
L70840 69926
L70896 69955
L70952 69955
" />
<path d="M71374 69926
L71318 69955
L71205 69955
L71149 69926
L71121 69870
L71121 69645
L71149 69589
L71205 69561
L71318 69561
L71374 69589
L71402 69645
L71402 69701
L71121 69758
" />
<path d="M71571 69561
L71796 69561
" />
<path d="M71655 69955
L71655 69448
L71683 69392
L71740 69364
L71796 69364
" />
<path d="M72246 69955
L72246 69645
L72218 69589
L72162 69561
L72049 69561
L71993 69589
" />
<path d="M72246 69926
L72190 69955
L72049 69955
L71993 69926
L71965 69870
L71965 69814
L71993 69758
L72049 69730
L72190 69730
L72246 69701
" />
<path d="M72527 69561
L72527 69955
" />
<path d="M72527 69617
L72555 69589
L72611 69561
L72696 69561
L72752 69589
L72780 69645
L72780 69955
" />
<path d="M73511 69955
L73511 69364
" />
<path d="M73849 69955
L73596 69617
" />
<path d="M73849 69364
L73511 69701
" />
<path d="M74102 69955
L74102 69561
" />
<path d="M74102 69673
L74130 69617
L74158 69589
L74214 69561
L74271 69561
" />
<path d="M74721 69561
L74721 69955
" />
<path d="M74467 69561
L74467 69870
L74496 69926
L74552 69955
L74636 69955
L74692 69926
L74721 69898
" />
<path d="M74496 69364
L74524 69392
L74496 69420
L74467 69392
L74496 69364
L74496 69420
" />
<path d="M74721 69364
L74749 69392
L74721 69420
L74692 69392
L74721 69364
L74721 69420
" />
<path d="M75255 69561
L75255 70039
L75227 70095
L75199 70123
L75142 70151
L75058 70151
L75002 70123
" />
<path d="M75255 69926
L75199 69955
L75086 69955
L75030 69926
L75002 69898
L74974 69842
L74974 69673
L75002 69617
L75030 69589
L75086 69561
L75199 69561
L75255 69589
" />
<path d="M75761 69926
L75705 69955
L75592 69955
L75536 69926
L75508 69870
L75508 69645
L75536 69589
L75592 69561
L75705 69561
L75761 69589
L75789 69645
L75789 69701
L75508 69758
" />
<path d="M76042 69955
L76042 69561
" />
<path d="M76042 69673
L76070 69617
L76099 69589
L76155 69561
L76211 69561
" />
</g>
<g style="fill:#000000; fill-opacity:0.0; 
stroke:#000000; stroke-width:39.3701; stroke-opacity:1; 
stroke-linecap:round; stroke-linejoin:round;">
</g>
<g style="fill:#000000; fill-opacity:0.0; 
stroke:#000000; stroke-width:59.0551; stroke-opacity:1; 
stroke-linecap:round; stroke-linejoin:round;">
<path d="M70587 68717
L70559 68745
L70474 68773
L70418 68773
L70334 68745
L70277 68689
L70249 68633
L70221 68520
L70221 68436
L70249 68323
L70277 68267
L70334 68211
L70418 68183
L70474 68183
L70559 68211
L70587 68239
" />
<path d="M71177 68717
L71149 68745
L71065 68773
L71009 68773
L70924 68745
L70868 68689
L70840 68633
L70812 68520
L70812 68436
L70840 68323
L70868 68267
L70924 68211
L71009 68183
L71065 68183
L71149 68211
L71177 68239
" />
<path d="M72077 68464
L72162 68492
L72190 68520
L72218 68577
L72218 68661
L72190 68717
L72162 68745
L72105 68773
L71880 68773
L71880 68183
L72077 68183
L72133 68211
L72162 68239
L72190 68295
L72190 68352
L72162 68408
L72133 68436
L72077 68464
L71880 68464
" />
<path d="M72583 68492
L72583 68773
" />
<path d="M72386 68183
L72583 68492
L72780 68183
" />
</g>
<g style="fill:#000000; fill-opacity:0.0; 
stroke:#000000; stroke-width:39.3701; stroke-opacity:1; 
stroke-linecap:round; stroke-linejoin:round;">
</g>
<g style="fill:#000000; fill-opacity:0.0; 
stroke:#000000; stroke-width:59.0551; stroke-opacity:1; 
stroke-linecap:round; stroke-linejoin:round;">
<path d="M70362 67002
L70474 67002
L70530 67030
L70587 67086
L70615 67199
L70615 67395
L70587 67508
L70530 67564
L70474 67592
L70362 67592
L70305 67564
L70249 67508
L70221 67395
L70221 67199
L70249 67086
L70305 67030
L70362 67002
" />
<path d="M70868 67199
L70868 67789
" />
<path d="M70868 67227
L70924 67199
L71037 67199
L71093 67227
L71121 67255
L71149 67311
L71149 67480
L71121 67536
L71093 67564
L71037 67592
L70924 67592
L70868 67564
" />
<path d="M71627 67564
L71571 67592
L71458 67592
L71402 67564
L71374 67508
L71374 67283
L71402 67227
L71458 67199
L71571 67199
L71627 67227
L71655 67283
L71655 67339
L71374 67395
" />
<path d="M71908 67199
L71908 67592
" />
<path d="M71908 67255
L71937 67227
L71993 67199
L72077 67199
L72133 67227
L72162 67283
L72162 67592
" />
<path d="M72865 67564
L72949 67592
L73090 67592
L73146 67564
L73174 67536
L73202 67480
L73202 67424
L73174 67367
L73146 67339
L73090 67311
L72977 67283
L72921 67255
L72893 67227
L72865 67171
L72865 67114
L72893 67058
L72921 67030
L72977 67002
L73118 67002
L73202 67030
" />
<path d="M73539 67592
L73483 67564
L73455 67536
L73427 67480
L73427 67311
L73455 67255
L73483 67227
L73539 67199
L73624 67199
L73680 67227
L73708 67255
L73736 67311
L73736 67480
L73708 67536
L73680 67564
L73624 67592
L73539 67592
" />
<path d="M74242 67199
L74242 67592
" />
<path d="M73989 67199
L73989 67508
L74018 67564
L74074 67592
L74158 67592
L74214 67564
L74242 67536
" />
<path d="M74524 67592
L74524 67199
" />
<path d="M74524 67311
L74552 67255
L74580 67227
L74636 67199
L74692 67199
" />
<path d="M75142 67564
L75086 67592
L74974 67592
L74917 67564
L74889 67536
L74861 67480
L74861 67311
L74889 67255
L74917 67227
L74974 67199
L75086 67199
L75142 67227
" />
<path d="M75620 67564
L75564 67592
L75452 67592
L75395 67564
L75367 67508
L75367 67283
L75395 67227
L75452 67199
L75564 67199
L75620 67227
L75649 67283
L75649 67339
L75367 67395
" />
<path d="M76352 67592
L76352 67002
" />
<path d="M76352 67283
L76689 67283
" />
<path d="M76689 67592
L76689 67002
" />
<path d="M77223 67592
L77223 67283
L77195 67227
L77139 67199
L77027 67199
L76970 67227
" />
<path d="M77223 67564
L77167 67592
L77027 67592
L76970 67564
L76942 67508
L76942 67452
L76970 67395
L77027 67367
L77167 67367
L77223 67339
" />
<path d="M77505 67592
L77505 67199
" />
<path d="M77505 67311
L77533 67255
L77561 67227
L77617 67199
L77673 67199
" />
<path d="M78123 67592
L78123 67002
" />
<path d="M78123 67564
L78067 67592
L77955 67592
L77898 67564
L77870 67536
L77842 67480
L77842 67311
L77870 67255
L77898 67227
L77955 67199
L78067 67199
L78123 67227
" />
<path d="M78348 67199
L78461 67592
L78573 67311
L78686 67592
L78798 67199
" />
<path d="M79276 67592
L79276 67283
L79248 67227
L79192 67199
L79079 67199
L79023 67227
" />
<path d="M79276 67564
L79220 67592
L79079 67592
L79023 67564
L78995 67508
L78995 67452
L79023 67395
L79079 67367
L79220 67367
L79276 67339
" />
<path d="M79557 67592
L79557 67199
" />
<path d="M79557 67311
L79586 67255
L79614 67227
L79670 67199
L79726 67199
" />
<path d="M80148 67564
L80092 67592
L79979 67592
L79923 67564
L79895 67508
L79895 67283
L79923 67227
L79979 67199
L80092 67199
L80148 67227
L80176 67283
L80176 67339
L79895 67395
" />
</g>
<g style="fill:#000000; fill-opacity:0.0; 
stroke:#000000; stroke-width:39.3701; stroke-opacity:1; 
stroke-linecap:round; stroke-linejoin:round;">
</g>
<g style="fill:#000000; fill-opacity:0.0; 
stroke:#000000; stroke-width:59.0551; stroke-opacity:1; 
stroke-linecap:round; stroke-linejoin:round;">
<path d="M77559 75396
L77559 76577
" />
</g>
<g style="fill:#000000; fill-opacity:0.0; 
stroke:#000000; stroke-width:39.3701; stroke-opacity:1; 
stroke-linecap:round; stroke-linejoin:round;">
</g>
<g style="fill:#000000; fill-opacity:0.0; 
stroke:#000000; stroke-width:59.0551; stroke-opacity:1; 
stroke-linecap:round; stroke-linejoin:round;">
<path d="M102756 75396
L102756 77955
" />
</g>
<g style="fill:#000000; fill-opacity:0.0; 
stroke:#000000; stroke-width:19.685; stroke-opacity:1; 
stroke-linecap:round; stroke-linejoin:round;">
<path d="M19685 25196
L19685 19685
" />
<path d="M26574 25196
L19685 25196
" />
<path d="M26574 19685
L26574 25196
" />
<path d="M19685 19685
L26574 19685
" />
</g>
<g style="fill:#000000; fill-opacity:1.0; 
stroke:#000000; stroke-width:0; stroke-opacity:1; 
stroke-linecap:round; stroke-linejoin:round;">
<polyline style="fill-rule:evenodd;"
points="24980,24998
24389,24998
24389,24761
24980,24761
24980,24998
" /> 
<polyline style="fill-rule:evenodd;"
points="22854,24998
22263,24998
22263,24761
22854,24761
22854,24998
" /> 
<polyline style="fill-rule:evenodd;"
points="25853,24225
25901,24239
25916,24244
25937,24255
25974,24275
26025,24317
26066,24368
26086,24405
26098,24426
26102,24441
26117,24489
26123,24555
26117,24620
26102,24669
26098,24683
26086,24705
26066,24741
26025,24792
25974,24834
25937,24854
25916,24865
25901,24870
25853,24884
25803,24889
25770,24889
25721,24884
25673,24870
25658,24865
25637,24854
25600,24834
25549,24792
25507,24741
25488,24705
25476,24683
25472,24669
25457,24620
25451,24555
25457,24489
25472,24441
25476,24426
25488,24405
25507,24368
25549,24317
25600,24275
25637,24255
25658,24244
25673,24239
25721,24225
25770,24220
25803,24220
25853,24225
" /> 
<polyline style="fill-rule:evenodd;"
points="21500,24105
21549,24119
21563,24124
21584,24135
21621,24155
21672,24197
21714,24248
21734,24285
21745,24306
21745,24306
21764,24369
21771,24435
21764,24500
21750,24549
21745,24563
21734,24584
21714,24621
21672,24672
21621,24714
21584,24734
21563,24745
21549,24750
21500,24764
21451,24769
21418,24769
21369,24764
21321,24750
21306,24745
21285,24734
21248,24714
21197,24672
21155,24621
21135,24584
21124,24563
21119,24549
21105,24500
21098,24435
21105,24369
21124,24306
21124,24306
21135,24285
21155,24248
21197,24197
21248,24155
21285,24135
21306,24124
21321,24119
21369,24105
21418,24100
21451,24100
21500,24105
" /> 
<polyline style="fill-rule:evenodd;"
points="22854,24498
22263,24498
22263,24261
22854,24261
22854,24498
" /> 
<polyline style="fill-rule:evenodd;"
points="24980,24498
24389,24498
24389,24261
24980,24261
24980,24498
" /> 
<polyline style="fill-rule:evenodd;"
points="20500,23605
20549,23619
20563,23624
20584,23635
20621,23655
20672,23697
20714,23748
20734,23785
20745,23806
20745,23806
20764,23869
20771,23935
20764,24000
20750,24049
20745,24063
20734,24084
20714,24121
20672,24172
20621,24214
20584,24234
20563,24245
20549,24250
20500,24264
20451,24269
20418,24269
20369,24264
20321,24250
20306,24245
20285,24234
20248,24214
20197,24172
20155,24121
20135,24084
20124,24063
20119,24049
20105,24000
20098,23935
20105,23869
20124,23806
20124,23806
20135,23785
20155,23748
20197,23697
20248,23655
20285,23635
20306,23624
20321,23619
20369,23605
20418,23600
20451,23600
20500,23605
" /> 
<polyline style="fill-rule:evenodd;"
points="22854,23998
22263,23998
22263,23761
22854,23761
22854,23998
" /> 
<polyline style="fill-rule:evenodd;"
points="24980,23998
24389,23998
24389,23761
24980,23761
24980,23998
" /> 
<polyline style="fill-rule:evenodd;"
points="25853,23225
25901,23239
25916,23244
25937,23255
25974,23275
26025,23317
26066,23368
26086,23405
26098,23426
26102,23441
26117,23489
26123,23555
26117,23620
26102,23669
26098,23683
26090,23697
26066,23741
26025,23792
25974,23834
25937,23854
25916,23865
25904,23869
25853,23884
25803,23889
25770,23889
25721,23884
25670,23869
25658,23865
25637,23854
25600,23834
25549,23792
25507,23741
25483,23697
25476,23683
25472,23669
25457,23620
25451,23555
25457,23489
25472,23441
25476,23426
25488,23405
25507,23368
25549,23317
25600,23275
25637,23255
25658,23244
25673,23239
25721,23225
25770,23220
25803,23220
25853,23225
" /> 
<polyline style="fill-rule:evenodd;"
points="21500,23105
21549,23119
21563,23124
21584,23135
21621,23155
21672,23197
21714,23248
21734,23285
21745,23306
21745,23306
21764,23369
21771,23435
21764,23500
21750,23549
21745,23563
21734,23584
21714,23621
21672,23672
21621,23714
21584,23734
21563,23745
21549,23750
21500,23764
21451,23769
21418,23769
21369,23764
21321,23750
21306,23745
21285,23734
21248,23714
21197,23672
21155,23621
21135,23584
21124,23563
21119,23549
21105,23500
21098,23435
21105,23369
21124,23306
21124,23306
21135,23285
21155,23248
21197,23197
21248,23155
21285,23135
21306,23124
21321,23119
21369,23105
21418,23100
21451,23100
21500,23105
" /> 
<polyline style="fill-rule:evenodd;"
points="22854,23498
22263,23498
22263,23261
22854,23261
22854,23498
" /> 
<polyline style="fill-rule:evenodd;"
points="24980,23498
24389,23498
24389,23261
24980,23261
24980,23498
" /> 
<polyline style="fill-rule:evenodd;"
points="20500,22605
20549,22619
20563,22624
20584,22635
20621,22655
20672,22697
20714,22748
20734,22785
20745,22806
20745,22806
20764,22869
20771,22935
20764,23000
20750,23049
20745,23063
20734,23084
20714,23121
20672,23172
20621,23214
20584,23234
20563,23245
20549,23250
20500,23264
20451,23269
20418,23269
20369,23264
20321,23250
20306,23245
20285,23234
20248,23214
20197,23172
20155,23121
20135,23084
20124,23063
20119,23049
20105,23000
20098,22935
20105,22869
20124,22806
20124,22806
20135,22785
20155,22748
20197,22697
20248,22655
20285,22635
20306,22624
20321,22619
20369,22605
20418,22600
20451,22600
20500,22605
" /> 
<polyline style="fill-rule:evenodd;"
points="24980,22998
24389,22998
24389,22761
24980,22761
24980,22998
" /> 
<polyline style="fill-rule:evenodd;"
points="22854,22998
22263,22998
22263,22761
22854,22761
22854,22998
" /> 
<polyline style="fill-rule:evenodd;"
points="25853,22225
25901,22239
25916,22244
25937,22255
25974,22275
26025,22317
26066,22368
26086,22405
26098,22426
26102,22441
26117,22489
26123,22555
26117,22620
26102,22669
26098,22683
26090,22697
26066,22741
26025,22792
25974,22834
25937,22854
25916,22865
25904,22869
25853,22884
25803,22889
25770,22889
25721,22884
25670,22869
25658,22865
25637,22854
25600,22834
25549,22792
25507,22741
25483,22697
25476,22683
25472,22669
25457,22620
25451,22555
25457,22489
25472,22441
25476,22426
25488,22405
25507,22368
25549,22317
25600,22275
25637,22255
25658,22244
25673,22239
25721,22225
25770,22220
25803,22220
25853,22225
" /> 
<polyline style="fill-rule:evenodd;"
points="21500,22105
21549,22119
21563,22124
21584,22135
21621,22155
21672,22197
21714,22248
21734,22285
21745,22306
21745,22306
21764,22369
21771,22435
21764,22500
21750,22549
21745,22563
21734,22584
21714,22621
21672,22672
21621,22714
21584,22734
21563,22745
21549,22750
21500,22764
21451,22769
21418,22769
21369,22764
21321,22750
21306,22745
21285,22734
21248,22714
21197,22672
21155,22621
21135,22584
21124,22563
21119,22549
21105,22500
21098,22435
21105,22369
21124,22306
21124,22306
21135,22285
21155,22248
21197,22197
21248,22155
21285,22135
21306,22124
21321,22119
21369,22105
21418,22100
21451,22100
21500,22105
" /> 
<polyline style="fill-rule:evenodd;"
points="22854,22498
22263,22498
22263,22261
22854,22261
22854,22498
" /> 
<polyline style="fill-rule:evenodd;"
points="24980,22498
24389,22498
24389,22261
24980,22261
24980,22498
" /> 
<polyline style="fill-rule:evenodd;"
points="20500,21605
20549,21619
20563,21624
20584,21635
20621,21655
20672,21697
20714,21748
20734,21785
20745,21806
20745,21806
20764,21869
20771,21935
20764,22000
20750,22049
20745,22063
20734,22084
20714,22121
20672,22172
20621,22214
20584,22234
20563,22245
20549,22250
20500,22264
20451,22269
20418,22269
20369,22264
20321,22250
20306,22245
20285,22234
20248,22214
20197,22172
20155,22121
20135,22084
20124,22063
20119,22049
20105,22000
20098,21935
20105,21869
20124,21806
20124,21806
20135,21785
20155,21748
20197,21697
20248,21655
20285,21635
20306,21624
20321,21619
20369,21605
20418,21600
20451,21600
20500,21605
" /> 
<polyline style="fill-rule:evenodd;"
points="24980,21998
24389,21998
24389,21761
24980,21761
24980,21998
" /> 
<polyline style="fill-rule:evenodd;"
points="22854,21998
22263,21998
22263,21761
22854,21761
22854,21998
" /> 
<polyline style="fill-rule:evenodd;"
points="26122,21889
25452,21889
25452,21220
26122,21220
26122,21889
" /> 
<polyline style="fill-rule:evenodd;"
points="21642,21103
21672,21112
21699,21127
21723,21146
21743,21170
21757,21197
21766,21227
21769,21258
21769,21611
21766,21642
21757,21672
21743,21699
21723,21723
21699,21743
21672,21757
21642,21766
21611,21769
21258,21769
21227,21766
21197,21757
21170,21743
21146,21723
21127,21699
21112,21672
21103,21642
21100,21611
21100,21258
21103,21227
21112,21197
21127,21170
21146,21146
21170,21127
21197,21112
21227,21103
21258,21100
21611,21100
21642,21103
" /> 
<polyline style="fill-rule:evenodd;"
points="22854,21498
22263,21498
22263,21261
22854,21261
22854,21498
" /> 
<polyline style="fill-rule:evenodd;"
points="24980,21498
24389,21498
24389,21261
24980,21261
24980,21498
" /> 
<polyline style="fill-rule:evenodd;"
points="20642,20603
20672,20612
20699,20627
20723,20646
20743,20670
20757,20697
20766,20727
20769,20758
20769,21111
20766,21142
20757,21172
20743,21199
20723,21223
20699,21243
20672,21257
20642,21266
20611,21269
20258,21269
20227,21266
20197,21257
20170,21243
20146,21223
20127,21199
20112,21172
20103,21142
20100,21111
20100,20758
20103,20727
20112,20697
20127,20670
20146,20646
20170,20627
20197,20612
20227,20603
20258,20600
20611,20600
20642,20603
" /> 
<polyline style="fill-rule:evenodd;"
points="23151,20513
23166,20518
23181,20525
23193,20536
23204,20549
23212,20563
23216,20579
23218,20596
23218,20840
23216,20857
23212,20873
23204,20887
23193,20900
23181,20911
23166,20918
23151,20923
23133,20925
22929,20925
22911,20923
22896,20918
22881,20911
22869,20900
22858,20887
22850,20873
22846,20857
22844,20840
22844,20596
22846,20579
22850,20563
22858,20549
22869,20536
22881,20525
22896,20518
22911,20513
22929,20511
23133,20511
23151,20513
" /> 
<polyline style="fill-rule:evenodd;"
points="23840,20513
23855,20518
23870,20525
23882,20536
23893,20549
23901,20563
23905,20579
23907,20596
23907,20840
23905,20857
23901,20873
23893,20887
23882,20900
23870,20911
23855,20918
23840,20923
23822,20925
23618,20925
23600,20923
23585,20918
23570,20911
23558,20900
23547,20887
23539,20873
23535,20857
23533,20840
23533,20596
23535,20579
23539,20563
23547,20549
23558,20536
23570,20525
23585,20518
23600,20513
23618,20511
23822,20511
23840,20513
" /> 
<polyline style="fill-rule:evenodd;"
points="26122,20708
25452,20708
25452,20039
26122,20039
26122,20708
" /> 
<polyline style="fill-rule:evenodd;"
points="24853,20044
24901,20058
24916,20063
24937,20074
24974,20094
25025,20136
25066,20187
25084,20220
25098,20245
25098,20245
25117,20308
25123,20374
25117,20439
25102,20488
25098,20502
25089,20518
25066,20560
25025,20611
24974,20653
24942,20670
24916,20684
24901,20689
24853,20703
24803,20708
24770,20708
24721,20703
24673,20689
24658,20684
24632,20670
24600,20653
24549,20611
24507,20560
24485,20518
24476,20502
24472,20488
24457,20439
24451,20374
24457,20308
24476,20245
24476,20245
24490,20220
24507,20187
24549,20136
24600,20094
24637,20074
24658,20063
24673,20058
24721,20044
24770,20039
24803,20039
24853,20044
" /> 
<polyline style="fill-rule:evenodd;"
points="23840,19824
23855,19829
23870,19837
23882,19847
23893,19860
23901,19874
23905,19890
23907,19907
23907,20151
23905,20168
23901,20184
23893,20198
23882,20211
23870,20222
23855,20229
23840,20234
23822,20236
23618,20236
23600,20234
23585,20229
23570,20222
23558,20211
23547,20198
23539,20184
23535,20168
23533,20151
23533,19907
23535,19890
23539,19874
23547,19860
23558,19847
23570,19837
23585,19829
23600,19824
23618,19822
23822,19822
23840,19824
" /> 
<polyline style="fill-rule:evenodd;"
points="23151,19824
23166,19829
23181,19837
23193,19847
23204,19860
23212,19874
23216,19890
23218,19907
23218,20151
23216,20168
23212,20184
23204,20198
23193,20211
23181,20222
23166,20229
23151,20234
23133,20236
22929,20236
22911,20234
22896,20229
22881,20222
22869,20211
22858,20198
22850,20184
22846,20168
22844,20151
22844,19907
22846,19890
22850,19874
22858,19860
22869,19847
22881,19837
22896,19829
22911,19824
22929,19822
23133,19822
23151,19824
" /> 
</g> 
</svg>
