<?xml version="1.0" standalone="no"?>
 <!DOCTYPE svg PUBLIC "-//W3C//DTD SVG 1.1//EN" 
 "http://www.w3.org/Graphics/SVG/1.1/DTD/svg11.dtd"> 
<svg xmlns="http://www.w3.org/2000/svg" version="1.1" 
    width="29.7002cm" height="21.0007cm" viewBox="0 0 116930 82680 ">
<title>SVG Picture created as receiver_mini-F.Cu.svg date 2018/12/14 01:57:14 </title>
  <desc>Picture generated by PCBNEW </desc>
<g style="fill:#000000; fill-opacity:1;stroke:#000000; stroke-opacity:1;
stroke-linecap:round; stroke-linejoin:round; "
 transform="translate(0 0) scale(1 1)">
</g>
<g style="fill:#000000; fill-opacity:0.0; 
stroke:#000000; stroke-width:-0.000393701; stroke-opacity:1; 
stroke-linecap:round; stroke-linejoin:round;">
</g>
<g style="fill:#000000; fill-opacity:0.0; 
stroke:#000000; stroke-width:39.3701; stroke-opacity:1; 
stroke-linecap:round; stroke-linejoin:round;">
</g>
<g style="fill:#000000; fill-opacity:0.0; 
stroke:#000000; stroke-width:59.0551; stroke-opacity:1; 
stroke-linecap:round; stroke-linejoin:round;">
<rect x="69685.9" y="65357.2" width="42519.7" height="12598.4" rx="0" />
</g>
<g style="fill:#000000; fill-opacity:0.0; 
stroke:#000000; stroke-width:39.3701; stroke-opacity:1; 
stroke-linecap:round; stroke-linejoin:round;">
</g>
<g style="fill:#000000; fill-opacity:0.0; 
stroke:#000000; stroke-width:59.0551; stroke-opacity:1; 
stroke-linecap:round; stroke-linejoin:round;">
<rect x="3937.01" y="3937.01" width="109056" height="74806" rx="0" />
</g>
<g style="fill:#000000; fill-opacity:0.0; 
stroke:#000000; stroke-width:39.3701; stroke-opacity:1; 
stroke-linecap:round; stroke-linejoin:round;">
</g>
<g style="fill:#000000; fill-opacity:0.0; 
stroke:#000000; stroke-width:59.0551; stroke-opacity:1; 
stroke-linecap:round; stroke-linejoin:round;">
<rect x="4724.41" y="4724.41" width="107481" height="73231.2" rx="0" />
</g>
<g style="fill:#000000; fill-opacity:0.0; 
stroke:#000000; stroke-width:39.3701; stroke-opacity:1; 
stroke-linecap:round; stroke-linejoin:round;">
</g>
<g style="fill:#000000; fill-opacity:0.0; 
stroke:#000000; stroke-width:59.0551; stroke-opacity:1; 
stroke-linecap:round; stroke-linejoin:round;">
<path d="M23622 4724
L23622 3937
" />
</g>
<g style="fill:#000000; fill-opacity:0.0; 
stroke:#000000; stroke-width:39.3701; stroke-opacity:1; 
stroke-linecap:round; stroke-linejoin:round;">
</g>
<g style="fill:#000000; fill-opacity:0.0; 
stroke:#000000; stroke-width:59.0551; stroke-opacity:1; 
stroke-linecap:round; stroke-linejoin:round;">
<path d="M43307 4724
L43307 3937
" />
</g>
<g style="fill:#000000; fill-opacity:0.0; 
stroke:#000000; stroke-width:39.3701; stroke-opacity:1; 
stroke-linecap:round; stroke-linejoin:round;">
</g>
<g style="fill:#000000; fill-opacity:0.0; 
stroke:#000000; stroke-width:59.0551; stroke-opacity:1; 
stroke-linecap:round; stroke-linejoin:round;">
<path d="M62992 4724
L62992 3937
" />
</g>
<g style="fill:#000000; fill-opacity:0.0; 
stroke:#000000; stroke-width:39.3701; stroke-opacity:1; 
stroke-linecap:round; stroke-linejoin:round;">
</g>
<g style="fill:#000000; fill-opacity:0.0; 
stroke:#000000; stroke-width:59.0551; stroke-opacity:1; 
stroke-linecap:round; stroke-linejoin:round;">
<path d="M82677 4724
L82677 3937
" />
</g>
<g style="fill:#000000; fill-opacity:0.0; 
stroke:#000000; stroke-width:39.3701; stroke-opacity:1; 
stroke-linecap:round; stroke-linejoin:round;">
</g>
<g style="fill:#000000; fill-opacity:0.0; 
stroke:#000000; stroke-width:59.0551; stroke-opacity:1; 
stroke-linecap:round; stroke-linejoin:round;">
<path d="M102362 4724
L102362 3937
" />
</g>
<g style="fill:#000000; fill-opacity:0.0; 
stroke:#000000; stroke-width:39.3701; stroke-opacity:1; 
stroke-linecap:round; stroke-linejoin:round;">
</g>
<g style="fill:#000000; fill-opacity:0.0; 
stroke:#000000; stroke-width:59.0551; stroke-opacity:1; 
stroke-linecap:round; stroke-linejoin:round;">
<path d="M14199 4562
L13906 4562
" />
<path d="M14052 4562
L14052 4050
L14004 4123
L13955 4172
L13906 4196
" />
</g>
<g style="fill:#000000; fill-opacity:0.0; 
stroke:#000000; stroke-width:39.3701; stroke-opacity:1; 
stroke-linecap:round; stroke-linejoin:round;">
</g>
<g style="fill:#000000; fill-opacity:0.0; 
stroke:#000000; stroke-width:59.0551; stroke-opacity:1; 
stroke-linecap:round; stroke-linejoin:round;">
<path d="M33591 4099
L33615 4074
L33664 4050
L33786 4050
L33835 4074
L33859 4099
L33884 4147
L33884 4196
L33859 4269
L33567 4562
L33884 4562
" />
</g>
<g style="fill:#000000; fill-opacity:0.0; 
stroke:#000000; stroke-width:39.3701; stroke-opacity:1; 
stroke-linecap:round; stroke-linejoin:round;">
</g>
<g style="fill:#000000; fill-opacity:0.0; 
stroke:#000000; stroke-width:59.0551; stroke-opacity:1; 
stroke-linecap:round; stroke-linejoin:round;">
<path d="M53252 4050
L53569 4050
L53398 4245
L53471 4245
L53520 4269
L53544 4294
L53569 4342
L53569 4464
L53544 4513
L53520 4537
L53471 4562
L53325 4562
L53276 4537
L53252 4513
" />
</g>
<g style="fill:#000000; fill-opacity:0.0; 
stroke:#000000; stroke-width:39.3701; stroke-opacity:1; 
stroke-linecap:round; stroke-linejoin:round;">
</g>
<g style="fill:#000000; fill-opacity:0.0; 
stroke:#000000; stroke-width:59.0551; stroke-opacity:1; 
stroke-linecap:round; stroke-linejoin:round;">
<path d="M73205 4221
L73205 4562
" />
<path d="M73083 4026
L72961 4391
L73278 4391
" />
</g>
<g style="fill:#000000; fill-opacity:0.0; 
stroke:#000000; stroke-width:39.3701; stroke-opacity:1; 
stroke-linecap:round; stroke-linejoin:round;">
</g>
<g style="fill:#000000; fill-opacity:0.0; 
stroke:#000000; stroke-width:59.0551; stroke-opacity:1; 
stroke-linecap:round; stroke-linejoin:round;">
<path d="M92914 4050
L92671 4050
L92646 4294
L92671 4269
L92719 4245
L92841 4245
L92890 4269
L92914 4294
L92939 4342
L92939 4464
L92914 4513
L92890 4537
L92841 4562
L92719 4562
L92671 4537
L92646 4513
" />
</g>
<g style="fill:#000000; fill-opacity:0.0; 
stroke:#000000; stroke-width:39.3701; stroke-opacity:1; 
stroke-linecap:round; stroke-linejoin:round;">
</g>
<g style="fill:#000000; fill-opacity:0.0; 
stroke:#000000; stroke-width:59.0551; stroke-opacity:1; 
stroke-linecap:round; stroke-linejoin:round;">
<path d="M112575 4050
L112477 4050
L112429 4074
L112404 4099
L112356 4172
L112331 4269
L112331 4464
L112356 4513
L112380 4537
L112429 4562
L112526 4562
L112575 4537
L112599 4513
L112624 4464
L112624 4342
L112599 4294
L112575 4269
L112526 4245
L112429 4245
L112380 4269
L112356 4294
L112331 4342
" />
</g>
<g style="fill:#000000; fill-opacity:0.0; 
stroke:#000000; stroke-width:39.3701; stroke-opacity:1; 
stroke-linecap:round; stroke-linejoin:round;">
</g>
<g style="fill:#000000; fill-opacity:0.0; 
stroke:#000000; stroke-width:59.0551; stroke-opacity:1; 
stroke-linecap:round; stroke-linejoin:round;">
<path d="M23622 77955
L23622 78742
" />
</g>
<g style="fill:#000000; fill-opacity:0.0; 
stroke:#000000; stroke-width:39.3701; stroke-opacity:1; 
stroke-linecap:round; stroke-linejoin:round;">
</g>
<g style="fill:#000000; fill-opacity:0.0; 
stroke:#000000; stroke-width:59.0551; stroke-opacity:1; 
stroke-linecap:round; stroke-linejoin:round;">
<path d="M43307 77955
L43307 78742
" />
</g>
<g style="fill:#000000; fill-opacity:0.0; 
stroke:#000000; stroke-width:39.3701; stroke-opacity:1; 
stroke-linecap:round; stroke-linejoin:round;">
</g>
<g style="fill:#000000; fill-opacity:0.0; 
stroke:#000000; stroke-width:59.0551; stroke-opacity:1; 
stroke-linecap:round; stroke-linejoin:round;">
<path d="M62992 77955
L62992 78742
" />
</g>
<g style="fill:#000000; fill-opacity:0.0; 
stroke:#000000; stroke-width:39.3701; stroke-opacity:1; 
stroke-linecap:round; stroke-linejoin:round;">
</g>
<g style="fill:#000000; fill-opacity:0.0; 
stroke:#000000; stroke-width:59.0551; stroke-opacity:1; 
stroke-linecap:round; stroke-linejoin:round;">
<path d="M82677 77955
L82677 78742
" />
</g>
<g style="fill:#000000; fill-opacity:0.0; 
stroke:#000000; stroke-width:39.3701; stroke-opacity:1; 
stroke-linecap:round; stroke-linejoin:round;">
</g>
<g style="fill:#000000; fill-opacity:0.0; 
stroke:#000000; stroke-width:59.0551; stroke-opacity:1; 
stroke-linecap:round; stroke-linejoin:round;">
<path d="M102362 77955
L102362 78742
" />
</g>
<g style="fill:#000000; fill-opacity:0.0; 
stroke:#000000; stroke-width:39.3701; stroke-opacity:1; 
stroke-linecap:round; stroke-linejoin:round;">
</g>
<g style="fill:#000000; fill-opacity:0.0; 
stroke:#000000; stroke-width:59.0551; stroke-opacity:1; 
stroke-linecap:round; stroke-linejoin:round;">
<path d="M14199 78580
L13906 78580
" />
<path d="M14052 78580
L14052 78069
L14004 78142
L13955 78190
L13906 78215
" />
</g>
<g style="fill:#000000; fill-opacity:0.0; 
stroke:#000000; stroke-width:39.3701; stroke-opacity:1; 
stroke-linecap:round; stroke-linejoin:round;">
</g>
<g style="fill:#000000; fill-opacity:0.0; 
stroke:#000000; stroke-width:59.0551; stroke-opacity:1; 
stroke-linecap:round; stroke-linejoin:round;">
<path d="M33591 78117
L33615 78093
L33664 78069
L33786 78069
L33835 78093
L33859 78117
L33884 78166
L33884 78215
L33859 78288
L33567 78580
L33884 78580
" />
</g>
<g style="fill:#000000; fill-opacity:0.0; 
stroke:#000000; stroke-width:39.3701; stroke-opacity:1; 
stroke-linecap:round; stroke-linejoin:round;">
</g>
<g style="fill:#000000; fill-opacity:0.0; 
stroke:#000000; stroke-width:59.0551; stroke-opacity:1; 
stroke-linecap:round; stroke-linejoin:round;">
<path d="M53252 78069
L53569 78069
L53398 78263
L53471 78263
L53520 78288
L53544 78312
L53569 78361
L53569 78483
L53544 78532
L53520 78556
L53471 78580
L53325 78580
L53276 78556
L53252 78532
" />
</g>
<g style="fill:#000000; fill-opacity:0.0; 
stroke:#000000; stroke-width:39.3701; stroke-opacity:1; 
stroke-linecap:round; stroke-linejoin:round;">
</g>
<g style="fill:#000000; fill-opacity:0.0; 
stroke:#000000; stroke-width:59.0551; stroke-opacity:1; 
stroke-linecap:round; stroke-linejoin:round;">
<path d="M73205 78239
L73205 78580
" />
<path d="M73083 78044
L72961 78410
L73278 78410
" />
</g>
<g style="fill:#000000; fill-opacity:0.0; 
stroke:#000000; stroke-width:39.3701; stroke-opacity:1; 
stroke-linecap:round; stroke-linejoin:round;">
</g>
<g style="fill:#000000; fill-opacity:0.0; 
stroke:#000000; stroke-width:59.0551; stroke-opacity:1; 
stroke-linecap:round; stroke-linejoin:round;">
<path d="M92914 78069
L92671 78069
L92646 78312
L92671 78288
L92719 78263
L92841 78263
L92890 78288
L92914 78312
L92939 78361
L92939 78483
L92914 78532
L92890 78556
L92841 78580
L92719 78580
L92671 78556
L92646 78532
" />
</g>
<g style="fill:#000000; fill-opacity:0.0; 
stroke:#000000; stroke-width:39.3701; stroke-opacity:1; 
stroke-linecap:round; stroke-linejoin:round;">
</g>
<g style="fill:#000000; fill-opacity:0.0; 
stroke:#000000; stroke-width:59.0551; stroke-opacity:1; 
stroke-linecap:round; stroke-linejoin:round;">
<path d="M112575 78069
L112477 78069
L112429 78093
L112404 78117
L112356 78190
L112331 78288
L112331 78483
L112356 78532
L112380 78556
L112429 78580
L112526 78580
L112575 78556
L112599 78532
L112624 78483
L112624 78361
L112599 78312
L112575 78288
L112526 78263
L112429 78263
L112380 78288
L112356 78312
L112331 78361
" />
</g>
<g style="fill:#000000; fill-opacity:0.0; 
stroke:#000000; stroke-width:39.3701; stroke-opacity:1; 
stroke-linecap:round; stroke-linejoin:round;">
</g>
<g style="fill:#000000; fill-opacity:0.0; 
stroke:#000000; stroke-width:59.0551; stroke-opacity:1; 
stroke-linecap:round; stroke-linejoin:round;">
<path d="M3937 23622
L4724 23622
" />
</g>
<g style="fill:#000000; fill-opacity:0.0; 
stroke:#000000; stroke-width:39.3701; stroke-opacity:1; 
stroke-linecap:round; stroke-linejoin:round;">
</g>
<g style="fill:#000000; fill-opacity:0.0; 
stroke:#000000; stroke-width:59.0551; stroke-opacity:1; 
stroke-linecap:round; stroke-linejoin:round;">
<path d="M3937 43307
L4724 43307
" />
</g>
<g style="fill:#000000; fill-opacity:0.0; 
stroke:#000000; stroke-width:39.3701; stroke-opacity:1; 
stroke-linecap:round; stroke-linejoin:round;">
</g>
<g style="fill:#000000; fill-opacity:0.0; 
stroke:#000000; stroke-width:59.0551; stroke-opacity:1; 
stroke-linecap:round; stroke-linejoin:round;">
<path d="M3937 62992
L4724 62992
" />
</g>
<g style="fill:#000000; fill-opacity:0.0; 
stroke:#000000; stroke-width:39.3701; stroke-opacity:1; 
stroke-linecap:round; stroke-linejoin:round;">
</g>
<g style="fill:#000000; fill-opacity:0.0; 
stroke:#000000; stroke-width:59.0551; stroke-opacity:1; 
stroke-linecap:round; stroke-linejoin:round;">
<path d="M4208 13864
L4452 13864
" />
<path d="M4160 14011
L4330 13499
L4501 14011
" />
</g>
<g style="fill:#000000; fill-opacity:0.0; 
stroke:#000000; stroke-width:39.3701; stroke-opacity:1; 
stroke-linecap:round; stroke-linejoin:round;">
</g>
<g style="fill:#000000; fill-opacity:0.0; 
stroke:#000000; stroke-width:59.0551; stroke-opacity:1; 
stroke-linecap:round; stroke-linejoin:round;">
<path d="M4367 33428
L4440 33452
L4464 33476
L4489 33525
L4489 33598
L4464 33647
L4440 33671
L4391 33696
L4196 33696
L4196 33184
L4367 33184
L4416 33208
L4440 33233
L4464 33281
L4464 33330
L4440 33379
L4416 33403
L4367 33428
L4196 33428
" />
</g>
<g style="fill:#000000; fill-opacity:0.0; 
stroke:#000000; stroke-width:39.3701; stroke-opacity:1; 
stroke-linecap:round; stroke-linejoin:round;">
</g>
<g style="fill:#000000; fill-opacity:0.0; 
stroke:#000000; stroke-width:59.0551; stroke-opacity:1; 
stroke-linecap:round; stroke-linejoin:round;">
<path d="M4489 53332
L4464 53356
L4391 53381
L4342 53381
L4269 53356
L4221 53308
L4196 53259
L4172 53161
L4172 53088
L4196 52991
L4221 52942
L4269 52893
L4342 52869
L4391 52869
L4464 52893
L4489 52918
" />
</g>
<g style="fill:#000000; fill-opacity:0.0; 
stroke:#000000; stroke-width:39.3701; stroke-opacity:1; 
stroke-linecap:round; stroke-linejoin:round;">
</g>
<g style="fill:#000000; fill-opacity:0.0; 
stroke:#000000; stroke-width:59.0551; stroke-opacity:1; 
stroke-linecap:round; stroke-linejoin:round;">
<path d="M4196 73066
L4196 72554
L4318 72554
L4391 72578
L4440 72627
L4464 72676
L4489 72773
L4489 72846
L4464 72944
L4440 72993
L4391 73041
L4318 73066
L4196 73066
" />
</g>
<g style="fill:#000000; fill-opacity:0.0; 
stroke:#000000; stroke-width:39.3701; stroke-opacity:1; 
stroke-linecap:round; stroke-linejoin:round;">
</g>
<g style="fill:#000000; fill-opacity:0.0; 
stroke:#000000; stroke-width:59.0551; stroke-opacity:1; 
stroke-linecap:round; stroke-linejoin:round;">
<path d="M112992 23622
L112205 23622
" />
</g>
<g style="fill:#000000; fill-opacity:0.0; 
stroke:#000000; stroke-width:39.3701; stroke-opacity:1; 
stroke-linecap:round; stroke-linejoin:round;">
</g>
<g style="fill:#000000; fill-opacity:0.0; 
stroke:#000000; stroke-width:59.0551; stroke-opacity:1; 
stroke-linecap:round; stroke-linejoin:round;">
<path d="M112992 43307
L112205 43307
" />
</g>
<g style="fill:#000000; fill-opacity:0.0; 
stroke:#000000; stroke-width:39.3701; stroke-opacity:1; 
stroke-linecap:round; stroke-linejoin:round;">
</g>
<g style="fill:#000000; fill-opacity:0.0; 
stroke:#000000; stroke-width:59.0551; stroke-opacity:1; 
stroke-linecap:round; stroke-linejoin:round;">
<path d="M112992 62992
L112205 62992
" />
</g>
<g style="fill:#000000; fill-opacity:0.0; 
stroke:#000000; stroke-width:39.3701; stroke-opacity:1; 
stroke-linecap:round; stroke-linejoin:round;">
</g>
<g style="fill:#000000; fill-opacity:0.0; 
stroke:#000000; stroke-width:59.0551; stroke-opacity:1; 
stroke-linecap:round; stroke-linejoin:round;">
<path d="M112477 13864
L112721 13864
" />
<path d="M112428 14011
L112599 13499
L112769 14011
" />
</g>
<g style="fill:#000000; fill-opacity:0.0; 
stroke:#000000; stroke-width:39.3701; stroke-opacity:1; 
stroke-linecap:round; stroke-linejoin:round;">
</g>
<g style="fill:#000000; fill-opacity:0.0; 
stroke:#000000; stroke-width:59.0551; stroke-opacity:1; 
stroke-linecap:round; stroke-linejoin:round;">
<path d="M112635 33428
L112708 33452
L112733 33476
L112757 33525
L112757 33598
L112733 33647
L112708 33671
L112660 33696
L112465 33696
L112465 33184
L112635 33184
L112684 33208
L112708 33233
L112733 33281
L112733 33330
L112708 33379
L112684 33403
L112635 33428
L112465 33428
" />
</g>
<g style="fill:#000000; fill-opacity:0.0; 
stroke:#000000; stroke-width:39.3701; stroke-opacity:1; 
stroke-linecap:round; stroke-linejoin:round;">
</g>
<g style="fill:#000000; fill-opacity:0.0; 
stroke:#000000; stroke-width:59.0551; stroke-opacity:1; 
stroke-linecap:round; stroke-linejoin:round;">
<path d="M112757 53332
L112733 53356
L112660 53381
L112611 53381
L112538 53356
L112489 53308
L112465 53259
L112440 53161
L112440 53088
L112465 52991
L112489 52942
L112538 52893
L112611 52869
L112660 52869
L112733 52893
L112757 52918
" />
</g>
<g style="fill:#000000; fill-opacity:0.0; 
stroke:#000000; stroke-width:39.3701; stroke-opacity:1; 
stroke-linecap:round; stroke-linejoin:round;">
</g>
<g style="fill:#000000; fill-opacity:0.0; 
stroke:#000000; stroke-width:59.0551; stroke-opacity:1; 
stroke-linecap:round; stroke-linejoin:round;">
<path d="M112465 73066
L112465 72554
L112587 72554
L112660 72578
L112708 72627
L112733 72676
L112757 72773
L112757 72846
L112733 72944
L112708 72993
L112660 73041
L112587 73066
L112465 73066
" />
</g>
<g style="fill:#000000; fill-opacity:0.0; 
stroke:#000000; stroke-width:39.3701; stroke-opacity:1; 
stroke-linecap:round; stroke-linejoin:round;">
</g>
<g style="fill:#000000; fill-opacity:0.0; 
stroke:#000000; stroke-width:59.0551; stroke-opacity:1; 
stroke-linecap:round; stroke-linejoin:round;">
<path d="M78911 76293
L78911 75703
L79051 75703
L79136 75731
L79192 75787
L79220 75843
L79248 75956
L79248 76040
L79220 76153
L79192 76209
L79136 76265
L79051 76293
L78911 76293
" />
<path d="M79754 76293
L79754 75984
L79726 75928
L79670 75899
L79557 75899
L79501 75928
" />
<path d="M79754 76265
L79698 76293
L79557 76293
L79501 76265
L79473 76209
L79473 76153
L79501 76096
L79557 76068
L79698 76068
L79754 76040
" />
<path d="M79951 75899
L80176 75899
" />
<path d="M80036 75703
L80036 76209
L80064 76265
L80120 76293
L80176 76293
" />
<path d="M80598 76265
L80542 76293
L80429 76293
L80373 76265
L80345 76209
L80345 75984
L80373 75928
L80429 75899
L80542 75899
L80598 75928
L80626 75984
L80626 76040
L80345 76096
" />
<path d="M80879 76237
L80907 76265
L80879 76293
L80851 76265
L80879 76237
L80879 76293
" />
<path d="M80879 75928
L80907 75956
L80879 75984
L80851 75956
L80879 75928
L80879 75984
" />
<path d="M81582 75759
L81610 75731
L81667 75703
L81807 75703
L81863 75731
L81892 75759
L81920 75815
L81920 75871
L81892 75956
L81554 76293
L81920 76293
" />
<path d="M82285 75703
L82341 75703
L82398 75731
L82426 75759
L82454 75815
L82482 75928
L82482 76068
L82454 76181
L82426 76237
L82398 76265
L82341 76293
L82285 76293
L82229 76265
L82201 76237
L82173 76181
L82145 76068
L82145 75928
L82173 75815
L82201 75759
L82229 75731
L82285 75703
" />
<path d="M83045 76293
L82707 76293
" />
<path d="M82876 76293
L82876 75703
L82820 75787
L82763 75843
L82707 75871
" />
<path d="M83382 75956
L83326 75928
L83298 75899
L83269 75843
L83269 75815
L83298 75759
L83326 75731
L83382 75703
L83494 75703
L83551 75731
L83579 75759
L83607 75815
L83607 75843
L83579 75899
L83551 75928
L83494 75956
L83382 75956
L83326 75984
L83298 76012
L83269 76068
L83269 76181
L83298 76237
L83326 76265
L83382 76293
L83494 76293
L83551 76265
L83579 76237
L83607 76181
L83607 76068
L83579 76012
L83551 75984
L83494 75956
" />
<path d="M83860 76068
L84310 76068
" />
<path d="M84901 76293
L84563 76293
" />
<path d="M84732 76293
L84732 75703
L84676 75787
L84619 75843
L84563 75871
" />
<path d="M85126 75759
L85154 75731
L85210 75703
L85350 75703
L85407 75731
L85435 75759
L85463 75815
L85463 75871
L85435 75956
L85097 76293
L85463 76293
" />
<path d="M85716 76068
L86166 76068
" />
<path d="M86757 76293
L86419 76293
" />
<path d="M86588 76293
L86588 75703
L86532 75787
L86475 75843
L86419 75871
" />
<path d="M87263 75899
L87263 76293
" />
<path d="M87122 75674
L86982 76096
L87347 76096
" />
</g>
<g style="fill:#000000; fill-opacity:0.0; 
stroke:#000000; stroke-width:39.3701; stroke-opacity:1; 
stroke-linecap:round; stroke-linejoin:round;">
</g>
<g style="fill:#000000; fill-opacity:0.0; 
stroke:#000000; stroke-width:59.0551; stroke-opacity:1; 
stroke-linecap:round; stroke-linejoin:round;">
<path d="M69685 76577
L112205 76577
" />
</g>
<g style="fill:#000000; fill-opacity:0.0; 
stroke:#000000; stroke-width:39.3701; stroke-opacity:1; 
stroke-linecap:round; stroke-linejoin:round;">
</g>
<g style="fill:#000000; fill-opacity:0.0; 
stroke:#000000; stroke-width:59.0551; stroke-opacity:1; 
stroke-linecap:round; stroke-linejoin:round;">
<path d="M70249 77395
L70249 76805
" />
<path d="M70587 77395
L70334 77058
" />
<path d="M70587 76805
L70249 77142
" />
<path d="M70840 77395
L70840 77002
" />
<path d="M70840 76805
L70812 76833
L70840 76861
L70868 76833
L70840 76805
L70840 76861
" />
<path d="M71458 77339
L71430 77367
L71346 77395
L71290 77395
L71205 77367
L71149 77311
L71121 77255
L71093 77142
L71093 77058
L71121 76946
L71149 76889
L71205 76833
L71290 76805
L71346 76805
L71430 76833
L71458 76861
" />
<path d="M71965 77395
L71965 77086
L71937 77030
L71880 77002
L71768 77002
L71712 77030
" />
<path d="M71965 77367
L71908 77395
L71768 77395
L71712 77367
L71683 77311
L71683 77255
L71712 77199
L71768 77171
L71908 77171
L71965 77142
" />
<path d="M72499 77395
L72499 76805
" />
<path d="M72499 77367
L72443 77395
L72330 77395
L72274 77367
L72246 77339
L72218 77283
L72218 77114
L72246 77058
L72274 77030
L72330 77002
L72443 77002
L72499 77030
" />
<path d="M73230 77086
L73427 77086
" />
<path d="M73511 77395
L73230 77395
L73230 76805
L73511 76805
" />
<path d="M73764 77339
L73793 77367
L73764 77395
L73736 77367
L73764 77339
L73764 77395
" />
<path d="M74046 77395
L74046 76805
L74186 76805
L74271 76833
L74327 76889
L74355 76946
L74383 77058
L74383 77142
L74355 77255
L74327 77311
L74271 77367
L74186 77395
L74046 77395
" />
<path d="M74636 77339
L74664 77367
L74636 77395
L74608 77367
L74636 77339
L74636 77395
" />
<path d="M74889 77227
L75171 77227
" />
<path d="M74833 77395
L75030 76805
L75227 77395
" />
<path d="M75424 77339
L75452 77367
L75424 77395
L75395 77367
L75424 77339
L75424 77395
" />
<path d="M76605 77395
L76605 76805
" />
<path d="M76661 77171
L76830 77395
" />
<path d="M76830 77002
L76605 77227
" />
<path d="M77083 77395
L77083 77002
" />
<path d="M77083 76805
L77055 76833
L77083 76861
L77111 76833
L77083 76805
L77083 76861
" />
<path d="M77617 77367
L77561 77395
L77448 77395
L77392 77367
L77364 77339
L77336 77283
L77336 77114
L77364 77058
L77392 77030
L77448 77002
L77561 77002
L77617 77030
" />
<path d="M78123 77395
L78123 77086
L78095 77030
L78039 77002
L77926 77002
L77870 77030
" />
<path d="M78123 77367
L78067 77395
L77926 77395
L77870 77367
L77842 77311
L77842 77255
L77870 77199
L77926 77171
L78067 77171
L78123 77142
" />
<path d="M78658 77395
L78658 76805
" />
<path d="M78658 77367
L78601 77395
L78489 77395
L78433 77367
L78404 77339
L78376 77283
L78376 77114
L78404 77058
L78433 77030
L78489 77002
L78601 77002
L78658 77030
" />
<path d="M79642 76805
L79529 76805
L79473 76833
L79445 76861
L79389 76946
L79361 77058
L79361 77283
L79389 77339
L79417 77367
L79473 77395
L79586 77395
L79642 77367
L79670 77339
L79698 77283
L79698 77142
L79670 77086
L79642 77058
L79586 77030
L79473 77030
L79417 77058
L79389 77086
L79361 77142
" />
<path d="M79951 77339
L79979 77367
L79951 77395
L79923 77367
L79951 77339
L79951 77395
" />
<path d="M80345 76805
L80401 76805
L80457 76833
L80485 76861
L80514 76917
L80542 77030
L80542 77171
L80514 77283
L80485 77339
L80457 77367
L80401 77395
L80345 77395
L80289 77367
L80260 77339
L80232 77283
L80204 77171
L80204 77030
L80232 76917
L80260 76861
L80289 76833
L80345 76805
" />
<path d="M80795 77339
L80823 77367
L80795 77395
L80767 77367
L80795 77339
L80795 77395
" />
<path d="M81188 76805
L81245 76805
L81301 76833
L81329 76861
L81357 76917
L81385 77030
L81385 77171
L81357 77283
L81329 77339
L81301 77367
L81245 77395
L81188 77395
L81132 77367
L81104 77339
L81076 77283
L81048 77171
L81048 77030
L81076 76917
L81104 76861
L81132 76833
L81188 76805
" />
<path d="M81638 77171
L82088 77171
" />
<path d="M82370 77395
L82370 77002
" />
<path d="M82370 77114
L82398 77058
L82426 77030
L82482 77002
L82538 77002
" />
<path d="M82988 77367
L82932 77395
L82820 77395
L82763 77367
L82735 77339
L82707 77283
L82707 77114
L82735 77058
L82763 77030
L82820 77002
L82932 77002
L82988 77030
" />
<path d="M83551 77395
L83213 77395
" />
<path d="M83382 77395
L83382 76805
L83326 76889
L83269 76946
L83213 76974
" />
<path d="M83804 77171
L84254 77171
" />
<path d="M84788 77002
L84788 77395
" />
<path d="M84535 77002
L84535 77311
L84563 77367
L84619 77395
L84704 77395
L84760 77367
L84788 77339
" />
<path d="M85069 77002
L85069 77395
" />
<path d="M85069 77058
L85097 77030
L85154 77002
L85238 77002
L85294 77030
L85322 77086
L85322 77395
" />
<path d="M85604 77395
L85604 76805
" />
<path d="M85660 77171
L85829 77395
" />
<path d="M85829 77002
L85604 77227
" />
<path d="M86082 77002
L86082 77395
" />
<path d="M86082 77058
L86110 77030
L86166 77002
L86250 77002
L86307 77030
L86335 77086
L86335 77395
" />
<path d="M86700 77395
L86644 77367
L86616 77339
L86588 77283
L86588 77114
L86616 77058
L86644 77030
L86700 77002
L86785 77002
L86841 77030
L86869 77058
L86897 77114
L86897 77283
L86869 77339
L86841 77367
L86785 77395
L86700 77395
" />
<path d="M87094 77002
L87206 77395
L87319 77114
L87431 77395
L87544 77002
" />
<path d="M87769 77002
L87769 77395
" />
<path d="M87769 77058
L87797 77030
L87853 77002
L87938 77002
L87994 77030
L88022 77086
L88022 77395
" />
<path d="M88303 77171
L88753 77171
" />
<path d="M89034 77395
L89034 76805
" />
<path d="M89034 77030
L89091 77002
L89203 77002
L89259 77030
L89287 77058
L89316 77114
L89316 77283
L89287 77339
L89259 77367
L89203 77395
L89091 77395
L89034 77367
" />
<path d="M89822 77002
L89822 77395
" />
<path d="M89681 76777
L89541 77199
L89906 77199
" />
<path d="M90159 77395
L90272 77395
L90328 77367
L90356 77339
L90412 77255
L90440 77142
L90440 76917
L90412 76861
L90384 76833
L90328 76805
L90215 76805
L90159 76833
L90131 76861
L90103 76917
L90103 77058
L90131 77114
L90159 77142
L90215 77171
L90328 77171
L90384 77142
L90412 77114
L90440 77058
" />
<path d="M91003 77395
L90665 77395
" />
<path d="M90834 77395
L90834 76805
L90778 76889
L90722 76946
L90665 76974
" />
<path d="M91368 76805
L91425 76805
L91481 76833
L91509 76861
L91537 76917
L91565 77030
L91565 77171
L91537 77283
L91509 77339
L91481 77367
L91425 77395
L91368 77395
L91312 77367
L91284 77339
L91256 77283
L91228 77171
L91228 77030
L91256 76917
L91284 76861
L91312 76833
L91368 76805
" />
<path d="M92072 76805
L91959 76805
L91903 76833
L91875 76861
L91818 76946
L91790 77058
L91790 77283
L91818 77339
L91847 77367
L91903 77395
L92015 77395
L92072 77367
L92100 77339
L92128 77283
L92128 77142
L92100 77086
L92072 77058
L92015 77030
L91903 77030
L91847 77058
L91818 77086
L91790 77142
" />
<path d="M92662 76805
L92381 76805
L92353 77086
L92381 77058
L92437 77030
L92578 77030
L92634 77058
L92662 77086
L92690 77142
L92690 77283
L92662 77339
L92634 77367
L92578 77395
L92437 77395
L92381 77367
L92353 77339
" />
<path d="M92803 76644
L93365 76644
" />
<path d="M93028 77058
L92971 77030
L92943 77002
L92915 76946
L92915 76917
L92943 76861
L92971 76833
L93028 76805
L93140 76805
L93196 76833
L93224 76861
L93253 76917
L93253 76946
L93224 77002
L93196 77030
L93140 77058
L93028 77058
L92971 77086
L92943 77114
L92915 77171
L92915 77283
L92943 77339
L92971 77367
L93028 77395
L93140 77395
L93196 77367
L93224 77339
L93253 77283
L93253 77171
L93224 77114
L93196 77086
L93140 77058
" />
<path d="M93365 76644
L93928 76644
" />
<path d="M93759 77002
L93759 77395
" />
<path d="M93618 76777
L93478 77199
L93843 77199
" />
<path d="M94321 77002
L94321 77395
" />
<path d="M94068 77002
L94068 77311
L94096 77367
L94153 77395
L94237 77395
L94293 77367
L94321 77339
" />
<path d="M94602 77395
L94602 76805
" />
<path d="M94602 77030
L94659 77002
L94771 77002
L94827 77030
L94856 77058
L94884 77114
L94884 77283
L94856 77339
L94827 77367
L94771 77395
L94659 77395
L94602 77367
" />
<path d="M95390 77002
L95390 77395
" />
<path d="M95137 77002
L95137 77311
L95165 77367
L95221 77395
L95305 77395
L95362 77367
L95390 77339
" />
<path d="M95671 77002
L95671 77395
" />
<path d="M95671 77058
L95699 77030
L95755 77002
L95840 77002
L95896 77030
L95924 77086
L95924 77395
" />
<path d="M96121 77002
L96346 77002
" />
<path d="M96205 76805
L96205 77311
L96233 77367
L96290 77395
L96346 77395
" />
<path d="M96796 77002
L96796 77395
" />
<path d="M96543 77002
L96543 77311
L96571 77367
L96627 77395
L96712 77395
L96768 77367
L96796 77339
" />
<path d="M97386 77395
L97049 77395
" />
<path d="M97218 77395
L97218 76805
L97162 76889
L97105 76946
L97049 76974
" />
<path d="M97724 77058
L97668 77030
L97640 77002
L97611 76946
L97611 76917
L97640 76861
L97668 76833
L97724 76805
L97836 76805
L97893 76833
L97921 76861
L97949 76917
L97949 76946
L97921 77002
L97893 77030
L97836 77058
L97724 77058
L97668 77086
L97640 77114
L97611 77171
L97611 77283
L97640 77339
L97668 77367
L97724 77395
L97836 77395
L97893 77367
L97921 77339
L97949 77283
L97949 77171
L97921 77114
L97893 77086
L97836 77058
" />
<path d="M98202 77339
L98230 77367
L98202 77395
L98174 77367
L98202 77339
L98202 77395
" />
<path d="M98596 76805
L98652 76805
L98708 76833
L98736 76861
L98764 76917
L98793 77030
L98793 77171
L98764 77283
L98736 77339
L98708 77367
L98652 77395
L98596 77395
L98539 77367
L98511 77339
L98483 77283
L98455 77171
L98455 77030
L98483 76917
L98511 76861
L98539 76833
L98596 76805
" />
<path d="M99299 77002
L99299 77395
" />
<path d="M99158 76777
L99018 77199
L99383 77199
" />
<path d="M99608 77339
L99636 77367
L99608 77395
L99580 77367
L99608 77339
L99608 77395
" />
<path d="M100199 77395
L99861 77395
" />
<path d="M100030 77395
L100030 76805
L99974 76889
L99917 76946
L99861 76974
" />
</g>
<g style="fill:#000000; fill-opacity:0.0; 
stroke:#000000; stroke-width:39.3701; stroke-opacity:1; 
stroke-linecap:round; stroke-linejoin:round;">
</g>
<g style="fill:#000000; fill-opacity:0.0; 
stroke:#000000; stroke-width:59.0551; stroke-opacity:1; 
stroke-linecap:round; stroke-linejoin:round;">
<path d="M69685 75396
L112205 75396
" />
</g>
<g style="fill:#000000; fill-opacity:0.0; 
stroke:#000000; stroke-width:39.3701; stroke-opacity:1; 
stroke-linecap:round; stroke-linejoin:round;">
</g>
<g style="fill:#000000; fill-opacity:0.0; 
stroke:#000000; stroke-width:118.11; stroke-opacity:1; 
stroke-linecap:round; stroke-linejoin:round;">
<path d="M104099 76293
L103902 76012
" />
<path d="M103761 76293
L103761 75703
L103986 75703
L104042 75731
L104070 75759
L104099 75815
L104099 75899
L104070 75956
L104042 75984
L103986 76012
L103761 76012
" />
<path d="M104577 76265
L104520 76293
L104408 76293
L104352 76265
L104323 76209
L104323 75984
L104352 75928
L104408 75899
L104520 75899
L104577 75928
L104605 75984
L104605 76040
L104323 76096
" />
<path d="M104802 75899
L104942 76293
L105083 75899
" />
<path d="M105308 76237
L105336 76265
L105308 76293
L105280 76265
L105308 76237
L105308 76293
" />
<path d="M105308 75928
L105336 75956
L105308 75984
L105280 75956
L105308 75928
L105308 75984
" />
<path d="M106151 75703
L106208 75703
L106264 75731
L106292 75759
L106320 75815
L106348 75928
L106348 76068
L106320 76181
L106292 76237
L106264 76265
L106208 76293
L106151 76293
L106095 76265
L106067 76237
L106039 76181
L106011 76068
L106011 75928
L106039 75815
L106067 75759
L106095 75731
L106151 75703
" />
<path d="M106601 76237
L106629 76265
L106601 76293
L106573 76265
L106601 76237
L106601 76293
" />
<path d="M107192 76293
L106854 76293
" />
<path d="M107023 76293
L107023 75703
L106967 75787
L106911 75843
L106854 75871
" />
<path d="M107445 76237
L107473 76265
L107445 76293
L107417 76265
L107445 76237
L107445 76293
" />
<path d="M107839 75703
L107895 75703
L107951 75731
L107979 75759
L108007 75815
L108036 75928
L108036 76068
L108007 76181
L107979 76237
L107951 76265
L107895 76293
L107839 76293
L107782 76265
L107754 76237
L107726 76181
L107698 76068
L107698 75928
L107726 75815
L107754 75759
L107782 75731
L107839 75703
" />
</g>
<g style="fill:#000000; fill-opacity:0.0; 
stroke:#000000; stroke-width:39.3701; stroke-opacity:1; 
stroke-linecap:round; stroke-linejoin:round;">
</g>
<g style="fill:#000000; fill-opacity:0.0; 
stroke:#000000; stroke-width:59.0551; stroke-opacity:1; 
stroke-linecap:round; stroke-linejoin:round;">
<path d="M70221 76265
L70305 76293
L70446 76293
L70502 76265
L70530 76237
L70559 76181
L70559 76124
L70530 76068
L70502 76040
L70446 76012
L70334 75984
L70277 75956
L70249 75928
L70221 75871
L70221 75815
L70249 75759
L70277 75731
L70334 75703
L70474 75703
L70559 75731
" />
<path d="M70812 76293
L70812 75899
" />
<path d="M70812 75703
L70784 75731
L70812 75759
L70840 75731
L70812 75703
L70812 75759
" />
<path d="M71037 75899
L71346 75899
L71037 76293
L71346 76293
" />
<path d="M71796 76265
L71740 76293
L71627 76293
L71571 76265
L71543 76209
L71543 75984
L71571 75928
L71627 75899
L71740 75899
L71796 75928
L71824 75984
L71824 76040
L71543 76096
" />
<path d="M72077 76237
L72105 76265
L72077 76293
L72049 76265
L72077 76237
L72077 76293
" />
<path d="M72077 75928
L72105 75956
L72077 75984
L72049 75956
L72077 75928
L72077 75984
" />
<path d="M72780 76124
L73061 76124
" />
<path d="M72724 76293
L72921 75703
L73118 76293
" />
<path d="M73568 75899
L73568 76293
" />
<path d="M73427 75674
L73286 76096
L73652 76096
" />
</g>
<g style="fill:#000000; fill-opacity:0.0; 
stroke:#000000; stroke-width:39.3701; stroke-opacity:1; 
stroke-linecap:round; stroke-linejoin:round;">
</g>
<g style="fill:#000000; fill-opacity:0.0; 
stroke:#000000; stroke-width:59.0551; stroke-opacity:1; 
stroke-linecap:round; stroke-linejoin:round;">
<path d="M103714 77395
L103714 76805
" />
<path d="M104248 77395
L104248 76805
" />
<path d="M104248 77367
L104192 77395
L104079 77395
L104023 77367
L103995 77339
L103967 77283
L103967 77114
L103995 77058
L104023 77030
L104079 77002
L104192 77002
L104248 77030
" />
<path d="M104529 77339
L104557 77367
L104529 77395
L104501 77367
L104529 77339
L104529 77395
" />
<path d="M104529 77030
L104557 77058
L104529 77086
L104501 77058
L104529 77030
L104529 77086
" />
<path d="M105570 77395
L105232 77395
" />
<path d="M105401 77395
L105401 76805
L105345 76889
L105289 76946
L105232 76974
" />
<path d="M106245 76777
L105739 77536
" />
<path d="M106751 77395
L106413 77395
" />
<path d="M106582 77395
L106582 76805
L106526 76889
L106470 76946
L106413 76974
" />
</g>
<g style="fill:#000000; fill-opacity:0.0; 
stroke:#000000; stroke-width:39.3701; stroke-opacity:1; 
stroke-linecap:round; stroke-linejoin:round;">
</g>
<g style="fill:#000000; fill-opacity:0.0; 
stroke:#000000; stroke-width:59.0551; stroke-opacity:1; 
stroke-linecap:round; stroke-linejoin:round;">
<path d="M69685 73821
L112205 73821
" />
</g>
<g style="fill:#000000; fill-opacity:0.0; 
stroke:#000000; stroke-width:39.3701; stroke-opacity:1; 
stroke-linecap:round; stroke-linejoin:round;">
</g>
<g style="fill:#000000; fill-opacity:0.0; 
stroke:#000000; stroke-width:157.48; stroke-opacity:1; 
stroke-linecap:round; stroke-linejoin:round;">
<path d="M70360 74099
L70810 74099
" />
<path d="M70486 74886
L70585 74099
" />
<path d="M70974 74886
L71039 74361
" />
<path d="M71072 74099
L71030 74136
L71063 74174
L71105 74136
L71072 74099
L71063 74174
" />
<path d="M71302 74361
L71602 74361
" />
<path d="M71447 74099
L71363 74774
L71391 74849
L71461 74886
L71536 74886
" />
<path d="M71911 74886
L71841 74849
L71813 74774
L71897 74099
" />
<path d="M72516 74849
L72436 74886
L72286 74886
L72216 74849
L72187 74774
L72225 74474
L72272 74399
L72352 74361
L72501 74361
L72572 74399
L72600 74474
L72591 74549
L72206 74624
" />
<path d="M72895 74811
L72928 74849
L72886 74886
L72853 74849
L72895 74811
L72886 74886
" />
<path d="M72947 74399
L72980 74436
L72937 74474
L72905 74436
L72947 74399
L72937 74474
" />
<path d="M74236 74886
L73861 74886
L73959 74099
" />
<path d="M74484 74099
L74648 74886
L75009 74099
" />
<path d="M75173 74886
L75271 74099
L75459 74099
L75567 74136
L75632 74211
L75660 74286
L75679 74436
L75665 74549
L75609 74699
L75562 74774
L75478 74849
L75361 74886
L75173 74886
" />
<path d="M75928 74849
L76035 74886
L76223 74886
L76303 74849
L76345 74811
L76392 74736
L76401 74661
L76373 74586
L76340 74549
L76270 74511
L76124 74474
L76054 74436
L76021 74399
L75993 74324
L76003 74249
L76049 74174
L76092 74136
L76171 74099
L76359 74099
L76467 74136
" />
<path d="M77713 74361
L77648 74886
" />
<path d="M77563 74061
L77306 74624
L77793 74624
" />
<path d="M78402 74849
L78323 74886
L78173 74886
L78102 74849
L78070 74811
L78041 74736
L78070 74511
L78116 74436
L78159 74399
L78238 74361
L78388 74361
L78459 74399
" />
<path d="M78735 74886
L78834 74099
" />
<path d="M79073 74886
L79124 74474
L79096 74399
L79026 74361
L78913 74361
L78834 74399
L78791 74436
" />
<path d="M80497 74886
L80282 74511
" />
<path d="M80047 74886
L80146 74099
L80446 74099
L80516 74136
L80549 74174
L80577 74249
L80563 74361
L80516 74436
L80474 74474
L80394 74511
L80094 74511
" />
<path d="M81139 74849
L81060 74886
L80910 74886
L80840 74849
L80811 74774
L80849 74474
L80896 74399
L80975 74361
L81125 74361
L81196 74399
L81224 74474
L81214 74549
L80830 74624
" />
<path d="M81852 74849
L81772 74886
L81622 74886
L81552 74849
L81519 74811
L81491 74736
L81519 74511
L81566 74436
L81608 74399
L81688 74361
L81838 74361
L81908 74399
" />
<path d="M82489 74849
L82410 74886
L82260 74886
L82189 74849
L82161 74774
L82199 74474
L82246 74399
L82325 74361
L82475 74361
L82546 74399
L82574 74474
L82564 74549
L82180 74624
" />
<path d="M82860 74886
L82925 74361
" />
<path d="M82958 74099
L82916 74136
L82949 74174
L82991 74136
L82958 74099
L82949 74174
" />
<path d="M83225 74361
L83347 74886
L83600 74361
" />
<path d="M84139 74849
L84059 74886
L83909 74886
L83839 74849
L83811 74774
L83849 74474
L83895 74399
L83975 74361
L84125 74361
L84195 74399
L84223 74474
L84214 74549
L83830 74624
" />
<path d="M84509 74886
L84575 74361
" />
<path d="M84556 74511
L84603 74436
L84645 74399
L84725 74361
L84800 74361
" />
<path d="M85597 74886
L85695 74099
L85887 74661
L86220 74099
L86122 74886
" />
<path d="M86497 74886
L86562 74361
" />
<path d="M86595 74099
L86553 74136
L86586 74174
L86628 74136
L86595 74099
L86586 74174
" />
<path d="M86937 74361
L86872 74886
" />
<path d="M86928 74436
L86970 74399
L87050 74361
L87162 74361
L87232 74399
L87261 74474
L87209 74886
" />
<path d="M87584 74886
L87650 74361
" />
<path d="M87682 74099
L87640 74136
L87673 74174
L87715 74136
L87682 74099
L87673 74174
" />
</g>
<g style="fill:#000000; fill-opacity:0.0; 
stroke:#000000; stroke-width:39.3701; stroke-opacity:1; 
stroke-linecap:round; stroke-linejoin:round;">
</g>
<g style="fill:#000000; fill-opacity:0.0; 
stroke:#000000; stroke-width:59.0551; stroke-opacity:1; 
stroke-linecap:round; stroke-linejoin:round;">
<path d="M70446 73070
L70249 73070
" />
<path d="M70249 73380
L70249 72789
L70530 72789
" />
<path d="M70755 73380
L70755 72986
" />
<path d="M70755 72789
L70727 72817
L70755 72845
L70784 72817
L70755 72789
L70755 72845
" />
<path d="M71121 73380
L71065 73352
L71037 73295
L71037 72789
" />
<path d="M71571 73352
L71515 73380
L71402 73380
L71346 73352
L71318 73295
L71318 73070
L71346 73014
L71402 72986
L71515 72986
L71571 73014
L71599 73070
L71599 73127
L71318 73183
" />
<path d="M71852 73323
L71880 73352
L71852 73380
L71824 73352
L71852 73323
L71852 73380
" />
<path d="M71852 73014
L71880 73042
L71852 73070
L71824 73042
L71852 73014
L71852 73070
" />
<path d="M72583 73380
L72583 72986
" />
<path d="M72583 73099
L72611 73042
L72640 73014
L72696 72986
L72752 72986
" />
<path d="M73174 73352
L73118 73380
L73005 73380
L72949 73352
L72921 73295
L72921 73070
L72949 73014
L73005 72986
L73118 72986
L73174 73014
L73202 73070
L73202 73127
L72921 73183
" />
<path d="M73708 73352
L73652 73380
L73539 73380
L73483 73352
L73455 73323
L73427 73267
L73427 73099
L73455 73042
L73483 73014
L73539 72986
L73652 72986
L73708 73014
" />
<path d="M74186 73352
L74130 73380
L74018 73380
L73961 73352
L73933 73295
L73933 73070
L73961 73014
L74018 72986
L74130 72986
L74186 73014
L74214 73070
L74214 73127
L73933 73183
" />
<path d="M74467 73380
L74467 72986
" />
<path d="M74467 72789
L74439 72817
L74467 72845
L74496 72817
L74467 72789
L74467 72845
" />
<path d="M74692 72986
L74833 73380
L74974 72986
" />
<path d="M75424 73352
L75367 73380
L75255 73380
L75199 73352
L75171 73295
L75171 73070
L75199 73014
L75255 72986
L75367 72986
L75424 73014
L75452 73070
L75452 73127
L75171 73183
" />
<path d="M75705 73380
L75705 72986
" />
<path d="M75705 73099
L75733 73042
L75761 73014
L75817 72986
L75874 72986
" />
<path d="M75930 73436
L76380 73436
" />
<path d="M76520 73380
L76520 72986
" />
<path d="M76520 73042
L76548 73014
L76605 72986
L76689 72986
L76745 73014
L76773 73070
L76773 73380
" />
<path d="M76773 73070
L76802 73014
L76858 72986
L76942 72986
L76998 73014
L77027 73070
L77027 73380
" />
<path d="M77308 73380
L77308 72986
" />
<path d="M77308 72789
L77280 72817
L77308 72845
L77336 72817
L77308 72789
L77308 72845
" />
<path d="M77589 72986
L77589 73380
" />
<path d="M77589 73042
L77617 73014
L77673 72986
L77758 72986
L77814 73014
L77842 73070
L77842 73380
" />
<path d="M78123 73380
L78123 72986
" />
<path d="M78123 72789
L78095 72817
L78123 72845
L78151 72817
L78123 72789
L78123 72845
" />
<path d="M78404 73323
L78433 73352
L78404 73380
L78376 73352
L78404 73323
L78404 73380
" />
<path d="M78686 73380
L78686 72789
" />
<path d="M78742 73155
L78911 73380
" />
<path d="M78911 72986
L78686 73211
" />
<path d="M79164 73380
L79164 72986
" />
<path d="M79164 72789
L79136 72817
L79164 72845
L79192 72817
L79164 72789
L79164 72845
" />
<path d="M79698 73352
L79642 73380
L79529 73380
L79473 73352
L79445 73323
L79417 73267
L79417 73099
L79445 73042
L79473 73014
L79529 72986
L79642 72986
L79698 73014
" />
<path d="M80204 73380
L80204 73070
L80176 73014
L80120 72986
L80007 72986
L79951 73014
" />
<path d="M80204 73352
L80148 73380
L80007 73380
L79951 73352
L79923 73295
L79923 73239
L79951 73183
L80007 73155
L80148 73155
L80204 73127
" />
<path d="M80739 73380
L80739 72789
" />
<path d="M80739 73352
L80682 73380
L80570 73380
L80514 73352
L80485 73323
L80457 73267
L80457 73099
L80485 73042
L80514 73014
L80570 72986
L80682 72986
L80739 73014
" />
<path d="M80879 73436
L81329 73436
" />
<path d="M81470 72986
L81470 73577
" />
<path d="M81470 73014
L81526 72986
L81638 72986
L81695 73014
L81723 73042
L81751 73099
L81751 73267
L81723 73323
L81695 73352
L81638 73380
L81526 73380
L81470 73352
" />
<path d="M82257 73352
L82201 73380
L82088 73380
L82032 73352
L82004 73323
L81976 73267
L81976 73099
L82004 73042
L82032 73014
L82088 72986
L82201 72986
L82257 73014
" />
<path d="M82510 73380
L82510 72789
" />
<path d="M82510 73014
L82566 72986
L82679 72986
L82735 73014
L82763 73042
L82791 73099
L82791 73267
L82763 73323
L82735 73352
L82679 73380
L82566 73380
L82510 73352
" />
</g>
<g style="fill:#000000; fill-opacity:0.0; 
stroke:#000000; stroke-width:39.3701; stroke-opacity:1; 
stroke-linecap:round; stroke-linejoin:round;">
</g>
<g style="fill:#000000; fill-opacity:0.0; 
stroke:#000000; stroke-width:59.0551; stroke-opacity:1; 
stroke-linecap:round; stroke-linejoin:round;">
<path d="M69685 71459
L112205 71459
" />
</g>
<g style="fill:#000000; fill-opacity:0.0; 
stroke:#000000; stroke-width:39.3701; stroke-opacity:1; 
stroke-linecap:round; stroke-linejoin:round;">
</g>
<g style="fill:#000000; fill-opacity:0.0; 
stroke:#000000; stroke-width:59.0551; stroke-opacity:1; 
stroke-linecap:round; stroke-linejoin:round;">
<path d="M70221 72289
L70305 72317
L70446 72317
L70502 72289
L70530 72260
L70559 72204
L70559 72148
L70530 72092
L70502 72064
L70446 72036
L70334 72007
L70277 71979
L70249 71951
L70221 71895
L70221 71839
L70249 71782
L70277 71754
L70334 71726
L70474 71726
L70559 71754
" />
<path d="M70812 72317
L70812 71726
" />
<path d="M71065 72317
L71065 72007
L71037 71951
L70980 71923
L70896 71923
L70840 71951
L70812 71979
" />
<path d="M71571 72289
L71515 72317
L71402 72317
L71346 72289
L71318 72232
L71318 72007
L71346 71951
L71402 71923
L71515 71923
L71571 71951
L71599 72007
L71599 72064
L71318 72120
" />
<path d="M72077 72289
L72021 72317
L71908 72317
L71852 72289
L71824 72232
L71824 72007
L71852 71951
L71908 71923
L72021 71923
L72077 71951
L72105 72007
L72105 72064
L71824 72120
" />
<path d="M72274 71923
L72499 71923
" />
<path d="M72358 71726
L72358 72232
L72386 72289
L72443 72317
L72499 72317
" />
<path d="M72696 72260
L72724 72289
L72696 72317
L72668 72289
L72696 72260
L72696 72317
" />
<path d="M72696 71951
L72724 71979
L72696 72007
L72668 71979
L72696 71951
L72696 72007
" />
</g>
<g style="fill:#000000; fill-opacity:0.0; 
stroke:#000000; stroke-width:39.3701; stroke-opacity:1; 
stroke-linecap:round; stroke-linejoin:round;">
</g>
<g style="fill:#000000; fill-opacity:0.0; 
stroke:#000000; stroke-width:118.11; stroke-opacity:1; 
stroke-linecap:round; stroke-linejoin:round;">
<path d="M70268 71108
L70325 71136
L70437 71136
L70493 71108
L70521 71051
L70521 71023
L70493 70967
L70437 70939
L70353 70939
L70296 70911
L70268 70854
L70268 70826
L70296 70770
L70353 70742
L70437 70742
L70493 70770
" />
<path d="M70775 70911
L71224 70911
" />
<path d="M71590 71136
L71534 71108
L71506 71051
L71506 70545
" />
<path d="M71815 71136
L71815 70742
" />
<path d="M71815 70545
L71787 70573
L71815 70601
L71843 70573
L71815 70545
L71815 70601
" />
<path d="M72349 70742
L72349 71220
L72321 71276
L72293 71304
L72237 71332
L72153 71332
L72096 71304
" />
<path d="M72349 71108
L72293 71136
L72181 71136
L72124 71108
L72096 71079
L72068 71023
L72068 70854
L72096 70798
L72124 70770
L72181 70742
L72293 70742
L72349 70770
" />
<path d="M72631 71136
L72631 70545
" />
<path d="M72884 71136
L72884 70826
L72856 70770
L72799 70742
L72715 70742
L72659 70770
L72631 70798
" />
<path d="M73081 70742
L73305 70742
" />
<path d="M73165 70545
L73165 71051
L73193 71108
L73249 71136
L73305 71136
" />
<path d="M73502 71079
L73530 71108
L73502 71136
L73474 71108
L73502 71079
L73502 71136
" />
<path d="M74009 71108
L73952 71136
L73840 71136
L73784 71108
L73755 71051
L73755 70826
L73784 70770
L73840 70742
L73952 70742
L74009 70770
L74037 70826
L74037 70883
L73755 70939
" />
<path d="M74543 70742
L74543 71136
" />
<path d="M74290 70742
L74290 71051
L74318 71108
L74374 71136
L74458 71136
L74515 71108
L74543 71079
" />
</g>
<g style="fill:#000000; fill-opacity:0.0; 
stroke:#000000; stroke-width:39.3701; stroke-opacity:1; 
stroke-linecap:round; stroke-linejoin:round;">
</g>
<g style="fill:#000000; fill-opacity:0.0; 
stroke:#000000; stroke-width:59.0551; stroke-opacity:1; 
stroke-linecap:round; stroke-linejoin:round;">
<path d="M70221 69926
L70305 69955
L70446 69955
L70502 69926
L70530 69898
L70559 69842
L70559 69786
L70530 69730
L70502 69701
L70446 69673
L70334 69645
L70277 69617
L70249 69589
L70221 69533
L70221 69476
L70249 69420
L70277 69392
L70334 69364
L70474 69364
L70559 69392
" />
<path d="M70727 69561
L70952 69561
" />
<path d="M70812 69364
L70812 69870
L70840 69926
L70896 69955
L70952 69955
" />
<path d="M71374 69926
L71318 69955
L71205 69955
L71149 69926
L71121 69870
L71121 69645
L71149 69589
L71205 69561
L71318 69561
L71374 69589
L71402 69645
L71402 69701
L71121 69758
" />
<path d="M71571 69561
L71796 69561
" />
<path d="M71655 69955
L71655 69448
L71683 69392
L71740 69364
L71796 69364
" />
<path d="M72246 69955
L72246 69645
L72218 69589
L72162 69561
L72049 69561
L71993 69589
" />
<path d="M72246 69926
L72190 69955
L72049 69955
L71993 69926
L71965 69870
L71965 69814
L71993 69758
L72049 69730
L72190 69730
L72246 69701
" />
<path d="M72527 69561
L72527 69955
" />
<path d="M72527 69617
L72555 69589
L72611 69561
L72696 69561
L72752 69589
L72780 69645
L72780 69955
" />
<path d="M73511 69955
L73511 69364
" />
<path d="M73849 69955
L73596 69617
" />
<path d="M73849 69364
L73511 69701
" />
<path d="M74102 69955
L74102 69561
" />
<path d="M74102 69673
L74130 69617
L74158 69589
L74214 69561
L74271 69561
" />
<path d="M74721 69561
L74721 69955
" />
<path d="M74467 69561
L74467 69870
L74496 69926
L74552 69955
L74636 69955
L74692 69926
L74721 69898
" />
<path d="M74496 69364
L74524 69392
L74496 69420
L74467 69392
L74496 69364
L74496 69420
" />
<path d="M74721 69364
L74749 69392
L74721 69420
L74692 69392
L74721 69364
L74721 69420
" />
<path d="M75255 69561
L75255 70039
L75227 70095
L75199 70123
L75142 70151
L75058 70151
L75002 70123
" />
<path d="M75255 69926
L75199 69955
L75086 69955
L75030 69926
L75002 69898
L74974 69842
L74974 69673
L75002 69617
L75030 69589
L75086 69561
L75199 69561
L75255 69589
" />
<path d="M75761 69926
L75705 69955
L75592 69955
L75536 69926
L75508 69870
L75508 69645
L75536 69589
L75592 69561
L75705 69561
L75761 69589
L75789 69645
L75789 69701
L75508 69758
" />
<path d="M76042 69955
L76042 69561
" />
<path d="M76042 69673
L76070 69617
L76099 69589
L76155 69561
L76211 69561
" />
</g>
<g style="fill:#000000; fill-opacity:0.0; 
stroke:#000000; stroke-width:39.3701; stroke-opacity:1; 
stroke-linecap:round; stroke-linejoin:round;">
</g>
<g style="fill:#000000; fill-opacity:0.0; 
stroke:#000000; stroke-width:59.0551; stroke-opacity:1; 
stroke-linecap:round; stroke-linejoin:round;">
<path d="M70587 68717
L70559 68745
L70474 68773
L70418 68773
L70334 68745
L70277 68689
L70249 68633
L70221 68520
L70221 68436
L70249 68323
L70277 68267
L70334 68211
L70418 68183
L70474 68183
L70559 68211
L70587 68239
" />
<path d="M71177 68717
L71149 68745
L71065 68773
L71009 68773
L70924 68745
L70868 68689
L70840 68633
L70812 68520
L70812 68436
L70840 68323
L70868 68267
L70924 68211
L71009 68183
L71065 68183
L71149 68211
L71177 68239
" />
<path d="M72077 68464
L72162 68492
L72190 68520
L72218 68577
L72218 68661
L72190 68717
L72162 68745
L72105 68773
L71880 68773
L71880 68183
L72077 68183
L72133 68211
L72162 68239
L72190 68295
L72190 68352
L72162 68408
L72133 68436
L72077 68464
L71880 68464
" />
<path d="M72583 68492
L72583 68773
" />
<path d="M72386 68183
L72583 68492
L72780 68183
" />
</g>
<g style="fill:#000000; fill-opacity:0.0; 
stroke:#000000; stroke-width:39.3701; stroke-opacity:1; 
stroke-linecap:round; stroke-linejoin:round;">
</g>
<g style="fill:#000000; fill-opacity:0.0; 
stroke:#000000; stroke-width:59.0551; stroke-opacity:1; 
stroke-linecap:round; stroke-linejoin:round;">
<path d="M70362 67002
L70474 67002
L70530 67030
L70587 67086
L70615 67199
L70615 67395
L70587 67508
L70530 67564
L70474 67592
L70362 67592
L70305 67564
L70249 67508
L70221 67395
L70221 67199
L70249 67086
L70305 67030
L70362 67002
" />
<path d="M70868 67199
L70868 67789
" />
<path d="M70868 67227
L70924 67199
L71037 67199
L71093 67227
L71121 67255
L71149 67311
L71149 67480
L71121 67536
L71093 67564
L71037 67592
L70924 67592
L70868 67564
" />
<path d="M71627 67564
L71571 67592
L71458 67592
L71402 67564
L71374 67508
L71374 67283
L71402 67227
L71458 67199
L71571 67199
L71627 67227
L71655 67283
L71655 67339
L71374 67395
" />
<path d="M71908 67199
L71908 67592
" />
<path d="M71908 67255
L71937 67227
L71993 67199
L72077 67199
L72133 67227
L72162 67283
L72162 67592
" />
<path d="M72865 67564
L72949 67592
L73090 67592
L73146 67564
L73174 67536
L73202 67480
L73202 67424
L73174 67367
L73146 67339
L73090 67311
L72977 67283
L72921 67255
L72893 67227
L72865 67171
L72865 67114
L72893 67058
L72921 67030
L72977 67002
L73118 67002
L73202 67030
" />
<path d="M73539 67592
L73483 67564
L73455 67536
L73427 67480
L73427 67311
L73455 67255
L73483 67227
L73539 67199
L73624 67199
L73680 67227
L73708 67255
L73736 67311
L73736 67480
L73708 67536
L73680 67564
L73624 67592
L73539 67592
" />
<path d="M74242 67199
L74242 67592
" />
<path d="M73989 67199
L73989 67508
L74018 67564
L74074 67592
L74158 67592
L74214 67564
L74242 67536
" />
<path d="M74524 67592
L74524 67199
" />
<path d="M74524 67311
L74552 67255
L74580 67227
L74636 67199
L74692 67199
" />
<path d="M75142 67564
L75086 67592
L74974 67592
L74917 67564
L74889 67536
L74861 67480
L74861 67311
L74889 67255
L74917 67227
L74974 67199
L75086 67199
L75142 67227
" />
<path d="M75620 67564
L75564 67592
L75452 67592
L75395 67564
L75367 67508
L75367 67283
L75395 67227
L75452 67199
L75564 67199
L75620 67227
L75649 67283
L75649 67339
L75367 67395
" />
<path d="M76352 67592
L76352 67002
" />
<path d="M76352 67283
L76689 67283
" />
<path d="M76689 67592
L76689 67002
" />
<path d="M77223 67592
L77223 67283
L77195 67227
L77139 67199
L77027 67199
L76970 67227
" />
<path d="M77223 67564
L77167 67592
L77027 67592
L76970 67564
L76942 67508
L76942 67452
L76970 67395
L77027 67367
L77167 67367
L77223 67339
" />
<path d="M77505 67592
L77505 67199
" />
<path d="M77505 67311
L77533 67255
L77561 67227
L77617 67199
L77673 67199
" />
<path d="M78123 67592
L78123 67002
" />
<path d="M78123 67564
L78067 67592
L77955 67592
L77898 67564
L77870 67536
L77842 67480
L77842 67311
L77870 67255
L77898 67227
L77955 67199
L78067 67199
L78123 67227
" />
<path d="M78348 67199
L78461 67592
L78573 67311
L78686 67592
L78798 67199
" />
<path d="M79276 67592
L79276 67283
L79248 67227
L79192 67199
L79079 67199
L79023 67227
" />
<path d="M79276 67564
L79220 67592
L79079 67592
L79023 67564
L78995 67508
L78995 67452
L79023 67395
L79079 67367
L79220 67367
L79276 67339
" />
<path d="M79557 67592
L79557 67199
" />
<path d="M79557 67311
L79586 67255
L79614 67227
L79670 67199
L79726 67199
" />
<path d="M80148 67564
L80092 67592
L79979 67592
L79923 67564
L79895 67508
L79895 67283
L79923 67227
L79979 67199
L80092 67199
L80148 67227
L80176 67283
L80176 67339
L79895 67395
" />
</g>
<g style="fill:#000000; fill-opacity:0.0; 
stroke:#000000; stroke-width:39.3701; stroke-opacity:1; 
stroke-linecap:round; stroke-linejoin:round;">
</g>
<g style="fill:#000000; fill-opacity:0.0; 
stroke:#000000; stroke-width:59.0551; stroke-opacity:1; 
stroke-linecap:round; stroke-linejoin:round;">
<path d="M77559 75396
L77559 76577
" />
</g>
<g style="fill:#000000; fill-opacity:0.0; 
stroke:#000000; stroke-width:39.3701; stroke-opacity:1; 
stroke-linecap:round; stroke-linejoin:round;">
</g>
<g style="fill:#000000; fill-opacity:0.0; 
stroke:#000000; stroke-width:59.0551; stroke-opacity:1; 
stroke-linecap:round; stroke-linejoin:round;">
<path d="M102756 75396
L102756 77955
" />
</g>
<g style="fill:#000000; fill-opacity:0.0; 
stroke:#000000; stroke-width:19.685; stroke-opacity:1; 
stroke-linecap:round; stroke-linejoin:round;">
<path d="M19685 25196
L19685 19685
" />
<path d="M26574 25196
L19685 25196
" />
<path d="M26574 19685
L26574 25196
" />
<path d="M19685 19685
L26574 19685
" />
</g>
<g style="fill:#000000; fill-opacity:0.0; 
stroke:#000000; stroke-width:0; stroke-opacity:1; 
stroke-linecap:round; stroke-linejoin:round;">
</g>
<g style="fill:#000000; fill-opacity:1.0; 
stroke:#000000; stroke-width:0; stroke-opacity:1; 
stroke-linecap:round; stroke-linejoin:round;">
<polyline style="fill-rule:evenodd;"
points="23823,20512
23832,20513
23841,20515
23849,20518
23858,20522
23865,20527
23873,20533
23880,20539
23886,20545
23891,20553
23896,20561
23900,20569
23903,20578
23905,20587
23907,20596
23907,20605
23907,20831
23907,20840
23905,20849
23903,20858
23900,20867
23896,20875
23891,20883
23886,20891
23880,20897
23873,20903
23865,20909
23858,20914
23849,20918
23841,20921
23832,20923
23823,20924
23813,20925
23626,20925
23617,20924
23608,20923
23599,20921
23591,20918
23582,20914
23575,20909
23567,20903
23560,20897
23554,20891
23549,20883
23544,20875
23540,20867
23537,20858
23535,20849
23533,20840
23533,20831
23533,20605
23533,20596
23535,20587
23537,20578
23540,20569
23544,20561
23549,20553
23554,20545
23560,20539
23567,20533
23575,20527
23582,20522
23591,20518
23599,20515
23608,20513
23617,20512
23626,20511
23813,20511
23823,20512
" /> 
<polyline style="fill-rule:evenodd;"
points="23823,19823
23832,19824
23841,19826
23849,19829
23858,19833
23865,19838
23873,19844
23880,19850
23886,19857
23891,19864
23896,19872
23900,19880
23903,19889
23905,19898
23907,19907
23907,19916
23907,20142
23907,20151
23905,20160
23903,20169
23900,20178
23896,20186
23891,20194
23886,20202
23880,20208
23873,20214
23865,20220
23858,20225
23849,20229
23841,20232
23832,20234
23823,20235
23813,20236
23626,20236
23617,20235
23608,20234
23599,20232
23591,20229
23582,20225
23575,20220
23567,20214
23560,20208
23554,20202
23549,20194
23544,20186
23540,20178
23537,20169
23535,20160
23533,20151
23533,20142
23533,19916
23533,19907
23535,19898
23537,19889
23540,19880
23544,19872
23549,19864
23554,19857
23560,19850
23567,19844
23575,19838
23582,19833
23591,19829
23599,19826
23608,19824
23617,19823
23626,19822
23813,19822
23823,19823
" /> 
</g>
<g style="fill:#000000; fill-opacity:1.0; 
stroke:#000000; stroke-width:669.291; stroke-opacity:1; 
stroke-linecap:round; stroke-linejoin:round;">
</g>
<g style="fill:#000000; fill-opacity:0.0; 
stroke:#000000; stroke-width:669.291; stroke-opacity:1; 
stroke-linecap:round; stroke-linejoin:round;">
<path d="M20435 23935
L20435 23935
" />
<path d="M20435 22935
L20435 22935
" />
<path d="M20435 21935
L20435 21935
" />
</g>
<g style="fill:#000000; fill-opacity:0.0; 
stroke:#000000; stroke-width:0; stroke-opacity:1; 
stroke-linecap:round; stroke-linejoin:round;">
</g>
<g style="fill:#000000; fill-opacity:1.0; 
stroke:#000000; stroke-width:0; stroke-opacity:1; 
stroke-linecap:round; stroke-linejoin:round;">
<polyline style="fill-rule:evenodd;"
points="20618,20601
20635,20603
20650,20607
20666,20613
20681,20620
20695,20628
20708,20638
20720,20649
20731,20661
20741,20674
20749,20688
20756,20703
20762,20719
20766,20735
20768,20751
20769,20767
20769,21102
20768,21118
20766,21135
20762,21150
20756,21166
20749,21181
20741,21195
20731,21208
20720,21220
20708,21231
20695,21241
20681,21249
20666,21256
20650,21262
20635,21266
20618,21268
20602,21269
20267,21269
20251,21268
20235,21266
20219,21262
20203,21256
20188,21249
20174,21241
20161,21231
20149,21220
20138,21208
20128,21195
20120,21181
20113,21166
20107,21150
20103,21135
20101,21118
20100,21102
20100,20767
20101,20751
20103,20735
20107,20719
20113,20703
20120,20688
20128,20674
20138,20661
20149,20649
20161,20638
20174,20628
20188,20620
20203,20613
20219,20607
20235,20603
20251,20601
20267,20600
20602,20600
20618,20601
" /> 
</g>
<g style="fill:#000000; fill-opacity:1.0; 
stroke:#000000; stroke-width:669.291; stroke-opacity:1; 
stroke-linecap:round; stroke-linejoin:round;">
</g>
<g style="fill:#000000; fill-opacity:0.0; 
stroke:#000000; stroke-width:669.291; stroke-opacity:1; 
stroke-linecap:round; stroke-linejoin:round;">
<path d="M24787 20374
L24787 20374
" />
</g>
<g style="fill:#000000; fill-opacity:0.0; 
stroke:#000000; stroke-width:0; stroke-opacity:1; 
stroke-linecap:round; stroke-linejoin:round;">
</g>
<g style="fill:#000000; fill-opacity:1.0; 
stroke:#000000; stroke-width:0; stroke-opacity:1; 
stroke-linecap:round; stroke-linejoin:round;">
<polyline style="fill-rule:evenodd;"
points="25452,20039
26122,20039
26122,20708
25452,20708
25452,20039
" /> 
</g>
<g style="fill:#000000; fill-opacity:1.0; 
stroke:#000000; stroke-width:669.291; stroke-opacity:1; 
stroke-linecap:round; stroke-linejoin:round;">
</g>
<g style="fill:#000000; fill-opacity:0.0; 
stroke:#000000; stroke-width:669.291; stroke-opacity:1; 
stroke-linecap:round; stroke-linejoin:round;">
<path d="M21435 24435
L21435 24435
" />
<path d="M21435 23435
L21435 23435
" />
<path d="M21435 22435
L21435 22435
" />
</g>
<g style="fill:#000000; fill-opacity:0.0; 
stroke:#000000; stroke-width:0; stroke-opacity:1; 
stroke-linecap:round; stroke-linejoin:round;">
</g>
<g style="fill:#000000; fill-opacity:1.0; 
stroke:#000000; stroke-width:0; stroke-opacity:1; 
stroke-linecap:round; stroke-linejoin:round;">
<polyline style="fill-rule:evenodd;"
points="21618,21101
21635,21103
21650,21107
21666,21113
21681,21120
21695,21128
21708,21138
21720,21149
21731,21161
21741,21174
21749,21188
21756,21203
21762,21219
21766,21235
21768,21251
21769,21267
21769,21602
21768,21618
21766,21635
21762,21650
21756,21666
21749,21681
21741,21695
21731,21708
21720,21720
21708,21731
21695,21741
21681,21749
21666,21756
21650,21762
21635,21766
21618,21768
21602,21769
21267,21769
21251,21768
21235,21766
21219,21762
21203,21756
21188,21749
21174,21741
21161,21731
21149,21720
21138,21708
21128,21695
21120,21681
21113,21666
21107,21650
21103,21635
21101,21618
21100,21602
21100,21267
21101,21251
21103,21235
21107,21219
21113,21203
21120,21188
21128,21174
21138,21161
21149,21149
21161,21138
21174,21128
21188,21120
21203,21113
21219,21107
21235,21103
21251,21101
21267,21100
21602,21100
21618,21101
" /> 
</g>
<g style="fill:#000000; fill-opacity:1.0; 
stroke:#000000; stroke-width:669.291; stroke-opacity:1; 
stroke-linecap:round; stroke-linejoin:round;">
</g>
<g style="fill:#000000; fill-opacity:0.0; 
stroke:#000000; stroke-width:669.291; stroke-opacity:1; 
stroke-linecap:round; stroke-linejoin:round;">
<path d="M25787 24555
L25787 24555
" />
<path d="M25787 23555
L25787 23555
" />
<path d="M25787 22555
L25787 22555
" />
</g>
<g style="fill:#000000; fill-opacity:0.0; 
stroke:#000000; stroke-width:0; stroke-opacity:1; 
stroke-linecap:round; stroke-linejoin:round;">
</g>
<g style="fill:#000000; fill-opacity:1.0; 
stroke:#000000; stroke-width:0; stroke-opacity:1; 
stroke-linecap:round; stroke-linejoin:round;">
<polyline style="fill-rule:evenodd;"
points="25452,21889
25452,21220
26122,21220
26122,21889
25452,21889
" /> 
<polyline style="fill-rule:evenodd;"
points="24389,21498
24389,21261
24980,21261
24980,21498
24389,21498
" /> 
<polyline style="fill-rule:evenodd;"
points="24389,21998
24389,21761
24980,21761
24980,21998
24389,21998
" /> 
<polyline style="fill-rule:evenodd;"
points="24389,22498
24389,22261
24980,22261
24980,22498
24389,22498
" /> 
<polyline style="fill-rule:evenodd;"
points="24389,22998
24389,22761
24980,22761
24980,22998
24389,22998
" /> 
<polyline style="fill-rule:evenodd;"
points="24389,23498
24389,23261
24980,23261
24980,23498
24389,23498
" /> 
<polyline style="fill-rule:evenodd;"
points="24389,23998
24389,23761
24980,23761
24980,23998
24389,23998
" /> 
<polyline style="fill-rule:evenodd;"
points="24389,24498
24389,24261
24980,24261
24980,24498
24389,24498
" /> 
<polyline style="fill-rule:evenodd;"
points="24389,24998
24389,24761
24980,24761
24980,24998
24389,24998
" /> 
<polyline style="fill-rule:evenodd;"
points="22263,24998
22263,24761
22854,24761
22854,24998
22263,24998
" /> 
<polyline style="fill-rule:evenodd;"
points="22263,24498
22263,24261
22854,24261
22854,24498
22263,24498
" /> 
<polyline style="fill-rule:evenodd;"
points="22263,23998
22263,23761
22854,23761
22854,23998
22263,23998
" /> 
<polyline style="fill-rule:evenodd;"
points="22263,23498
22263,23261
22854,23261
22854,23498
22263,23498
" /> 
<polyline style="fill-rule:evenodd;"
points="22263,22998
22263,22761
22854,22761
22854,22998
22263,22998
" /> 
<polyline style="fill-rule:evenodd;"
points="22263,22498
22263,22261
22854,22261
22854,22498
22263,22498
" /> 
<polyline style="fill-rule:evenodd;"
points="22263,21998
22263,21761
22854,21761
22854,21998
22263,21998
" /> 
<polyline style="fill-rule:evenodd;"
points="22263,21498
22263,21261
22854,21261
22854,21498
22263,21498
" /> 
<polyline style="fill-rule:evenodd;"
points="23134,19823
23143,19824
23152,19826
23160,19829
23169,19833
23176,19838
23184,19844
23191,19850
23197,19857
23202,19864
23207,19872
23211,19880
23214,19889
23216,19898
23218,19907
23218,19916
23218,20142
23218,20151
23216,20160
23214,20169
23211,20178
23207,20186
23202,20194
23197,20202
23191,20208
23184,20214
23176,20220
23169,20225
23160,20229
23152,20232
23143,20234
23134,20235
23125,20236
22937,20236
22928,20235
22919,20234
22910,20232
22902,20229
22893,20225
22886,20220
22878,20214
22871,20208
22865,20202
22860,20194
22855,20186
22851,20178
22848,20169
22846,20160
22844,20151
22844,20142
22844,19916
22844,19907
22846,19898
22848,19889
22851,19880
22855,19872
22860,19864
22865,19857
22871,19850
22878,19844
22886,19838
22893,19833
22902,19829
22910,19826
22919,19824
22928,19823
22937,19822
23125,19822
23134,19823
" /> 
<polyline style="fill-rule:evenodd;"
points="23134,20512
23143,20513
23152,20515
23160,20518
23169,20522
23176,20527
23184,20533
23191,20539
23197,20545
23202,20553
23207,20561
23211,20569
23214,20578
23216,20587
23218,20596
23218,20605
23218,20831
23218,20840
23216,20849
23214,20858
23211,20867
23207,20875
23202,20883
23197,20891
23191,20897
23184,20903
23176,20909
23169,20914
23160,20918
23152,20921
23143,20923
23134,20924
23125,20925
22937,20925
22928,20924
22919,20923
22910,20921
22902,20918
22893,20914
22886,20909
22878,20903
22871,20897
22865,20891
22860,20883
22855,20875
22851,20867
22848,20858
22846,20849
22844,20840
22844,20831
22844,20605
22844,20596
22846,20587
22848,20578
22851,20569
22855,20561
22860,20553
22865,20545
22871,20539
22878,20533
22886,20527
22893,20522
22902,20518
22910,20515
22919,20513
22928,20512
22937,20511
23125,20511
23134,20512
" /> 
<circle cx="22637.8" cy="20078.7" r="157.48" /> 
</g>
<g style="fill:#000000; fill-opacity:1.0; 
stroke:#000000; stroke-width:39.3701; stroke-opacity:1; 
stroke-linecap:round; stroke-linejoin:round;">
</g>
<g style="fill:#000000; fill-opacity:1.0; 
stroke:#000000; stroke-width:0; stroke-opacity:1; 
stroke-linecap:round; stroke-linejoin:round;">
<circle cx="24015.7" cy="23326.8" r="157.48" /> 
</g>
<g style="fill:#000000; fill-opacity:1.0; 
stroke:#000000; stroke-width:39.3701; stroke-opacity:1; 
stroke-linecap:round; stroke-linejoin:round;">
</g>
<g style="fill:#000000; fill-opacity:1.0; 
stroke:#000000; stroke-width:0; stroke-opacity:1; 
stroke-linecap:round; stroke-linejoin:round;">
<circle cx="24015.7" cy="21752" r="157.48" /> 
</g>
<g style="fill:#000000; fill-opacity:1.0; 
stroke:#000000; stroke-width:39.3701; stroke-opacity:1; 
stroke-linecap:round; stroke-linejoin:round;">
</g>
<g style="fill:#000000; fill-opacity:1.0; 
stroke:#000000; stroke-width:0; stroke-opacity:1; 
stroke-linecap:round; stroke-linejoin:round;">
<circle cx="22342.5" cy="20275.6" r="157.48" /> 
</g>
<g style="fill:#000000; fill-opacity:1.0; 
stroke:#000000; stroke-width:39.3701; stroke-opacity:1; 
stroke-linecap:round; stroke-linejoin:round;">
</g>
<g style="fill:#000000; fill-opacity:1.0; 
stroke:#000000; stroke-width:0; stroke-opacity:1; 
stroke-linecap:round; stroke-linejoin:round;">
<circle cx="22539.4" cy="20570.9" r="157.48" /> 
</g>
<g style="fill:#000000; fill-opacity:1.0; 
stroke:#000000; stroke-width:39.3701; stroke-opacity:1; 
stroke-linecap:round; stroke-linejoin:round;">
</g>
<g style="fill:#000000; fill-opacity:1.0; 
stroke:#000000; stroke-width:0; stroke-opacity:1; 
stroke-linecap:round; stroke-linejoin:round;">
<circle cx="22145.7" cy="23425.2" r="157.48" /> 
</g>
<g style="fill:#000000; fill-opacity:1.0; 
stroke:#000000; stroke-width:39.3701; stroke-opacity:1; 
stroke-linecap:round; stroke-linejoin:round;">
</g>
<g style="fill:#000000; fill-opacity:1.0; 
stroke:#000000; stroke-width:98.4252; stroke-opacity:1; 
stroke-linecap:round; stroke-linejoin:round;">
</g>
<g style="fill:#000000; fill-opacity:0.0; 
stroke:#000000; stroke-width:98.4252; stroke-opacity:1; 
stroke-linecap:round; stroke-linejoin:round;">
<path d="M23031 20029
L22687 20029
" />
<path d="M22687 20029
L22637 20078
" />
<path d="M24631 23326
L24685 23379
" />
<path d="M24015 23326
L24631 23326
" />
<path d="M24442 20029
L24787 20374
" />
<path d="M23720 20029
L24442 20029
" />
<path d="M23031 20570
L23572 20029
" />
<path d="M23031 20718
L23031 20570
" />
<path d="M23622 21456
L23622 22440
" />
<path d="M23622 22440
L24061 22879
" />
<path d="M23572 20029
L23720 20029
" />
<path d="M24061 22879
L24685 22879
" />
<path d="M23031 20718
L23031 20866
" />
<path d="M23031 20866
L23622 21456
" />
<path d="M25612 24379
L25787 24555
" />
<path d="M24685 24379
L25612 24379
" />
<path d="M25462 23879
L25787 23555
" />
<path d="M24685 23879
L25462 23879
" />
<path d="M25612 22379
L25787 22555
" />
<path d="M24685 22379
L25612 22379
" />
<path d="M25462 21879
L25787 21555
" />
<path d="M24685 21879
L25462 21879
" />
<path d="M21490 24379
L21435 24435
" />
<path d="M22559 24379
L21490 24379
" />
<path d="M20435 22108
L20435 21935
" />
<path d="M21224 22897
L20435 22108
" />
<path d="M21657 22897
L21224 22897
" />
<path d="M22559 22879
L21674 22879
" />
<path d="M21674 22879
L21657 22897
" />
<path d="M20809 20935
L20435 20935
" />
<path d="M21722 20935
L20809 20935
" />
<path d="M22559 21379
L22167 21379
" />
<path d="M22167 21379
L21722 20935
" />
<path d="M21879 23879
L22559 23879
" />
<path d="M21435 23435
L21879 23879
" />
<path d="M20435 24685
L20435 23935
" />
<path d="M20750 25000
L20435 24685
" />
<path d="M22045 25000
L20750 25000
" />
<path d="M22559 24879
L22165 24879
" />
<path d="M22165 24879
L22045 25000
" />
<path d="M21879 21879
L21435 21435
" />
<path d="M22559 21879
L21879 21879
" />
<path d="M21490 22379
L21435 22435
" />
<path d="M22559 22379
L21490 22379
" />
<path d="M22559 23379
L22190 23379
" />
<path d="M22190 23379
L22145 23425
" />
<path d="M24529 21379
L24685 21379
" />
<path d="M23720 20718
L23868 20718
" />
<path d="M23868 20718
L24529 21379
" />
</g>
<g style="fill:#000000; fill-opacity:1.0; 
stroke:#000000; stroke-width:78.7402; stroke-opacity:1; 
stroke-linecap:round; stroke-linejoin:round;">
<polyline style="fill-rule:evenodd;"
points="22726,19940
22755,19970
22972,19970
22972,19962
23090,19962
23090,19970
23098,19970
23098,20088
23090,20088
23090,20096
22972,20096
22972,20088
22755,20088
22726,20118
22726,20259
22744,20303
22777,20336
22820,20354
22942,20354
22972,20324
22972,20354
23011,20354
22974,20391
22937,20391
22856,20407
22786,20454
22740,20523
22724,20605
22724,20831
22740,20913
22786,20982
22856,21029
22937,21045
22974,21045
23454,21526
23454,22424
23451,22440
23464,22506
23464,22506
23501,22561
23515,22570
23931,22986
23940,23000
23954,23009
23995,23037
24061,23050
24077,23047
24280,23047
24304,23083
24343,23109
24389,23118
24980,23118
25026,23109
25065,23083
25091,23044
25100,22998
25100,22761
25091,22715
25065,22676
25026,22650
24980,22641
24389,22641
24343,22650
24304,22676
24280,22712
24130,22712
23789,22371
23789,22261
24269,22261
24269,22498
24278,22544
24304,22583
24343,22609
24389,22618
24980,22618
25026,22609
25065,22583
25089,22547
25327,22547
25325,22555
25360,22731
25460,22881
25610,22981
25742,23007
25831,23007
25964,22981
26113,22881
26213,22731
26249,22555
26213,22378
26113,22228
25964,22128
25831,22102
25742,22102
25610,22128
25485,22212
25089,22212
25065,22176
25026,22150
24980,22141
24389,22141
24343,22150
24304,22176
24278,22215
24269,22261
23789,22261
23789,21761
24269,21761
24269,21998
24278,22044
24304,22083
24343,22109
24389,22118
24980,22118
25026,22109
25065,22083
25089,22047
25446,22047
25462,22050
25479,22047
25479,22047
25527,22037
25568,22010
26122,22010
26168,22001
26207,21974
26233,21935
26242,21889
26242,21220
26233,21174
26207,21135
26168,21109
26122,21100
25452,21100
25406,21109
25367,21135
25341,21174
25332,21220
25332,21712
25089,21712
25065,21676
25026,21650
24980,21641
24389,21641
24343,21650
24304,21676
24278,21715
24269,21761
23789,21761
23789,21473
23792,21456
23788,21434
23779,21391
23742,21336
23728,21326
23319,20917
23322,20913
23338,20831
23338,20605
23413,20605
23413,20831
23429,20913
23475,20982
23545,21029
23626,21045
23813,21045
23895,21029
23923,21010
24269,21356
24269,21498
24278,21544
24304,21583
24343,21609
24389,21618
24980,21618
25026,21609
25065,21583
25091,21544
25100,21498
25100,21261
25091,21215
25065,21176
25026,21150
24980,21141
24527,21141
24027,20641
24027,20605
24011,20523
23965,20454
23895,20407
23813,20391
23626,20391
23545,20407
23475,20454
23429,20523
23413,20605
23338,20605
23322,20523
23319,20519
23517,20321
23545,20340
23626,20356
23813,20356
23895,20340
23965,20293
24011,20224
24017,20196
24361,20196
24360,20197
24325,20374
24360,20550
24460,20700
24610,20800
24742,20826
24831,20826
24964,20800
25113,20700
25213,20550
25231,20462
25334,20462
25334,20732
25352,20775
25385,20808
25429,20826
25698,20826
25728,20797
25728,20433
25846,20433
25846,20797
25875,20826
26145,20826
26188,20808
26222,20775
26240,20732
26240,20462
26210,20433
25846,20433
25728,20433
25364,20433
25334,20462
25231,20462
25249,20374
25213,20197
25113,20047
25066,20015
25334,20015
25334,20285
25364,20314
25728,20314
25728,19950
25846,19950
25846,20314
26210,20314
26240,20285
26240,20015
26222,19972
26188,19939
26145,19921
25875,19921
25846,19950
25728,19950
25698,19921
25429,19921
25385,19939
25352,19972
25334,20015
25066,20015
24964,19947
24831,19921
24742,19921
24610,19947
24602,19952
24572,19922
24563,19908
24508,19871
24459,19862
24459,19862
24442,19858
24426,19862
24017,19862
24011,19834
23997,19812
26446,19812
26446,25068
25075,25068
25091,25044
25100,24998
25100,24761
25091,24715
25065,24676
25026,24650
24980,24641
24389,24641
24343,24650
24304,24676
24278,24715
24269,24761
24269,24998
24278,25044
24295,25068
23267,25068
23267,24261
24269,24261
24269,24498
24278,24544
24304,24583
24343,24609
24389,24618
24980,24618
25026,24609
25065,24583
25089,24547
25327,24547
25325,24555
25360,24731
25460,24881
25610,24981
25742,25007
25831,25007
25964,24981
26113,24881
26213,24731
26249,24555
26213,24378
26113,24228
25964,24128
25831,24102
25742,24102
25610,24128
25485,24212
25089,24212
25065,24176
25026,24150
24980,24141
24389,24141
24343,24150
24304,24176
24278,24215
24269,24261
23267,24261
23267,23761
24269,23761
24269,23998
24278,24044
24304,24083
24343,24109
24389,24118
24980,24118
25026,24109
25065,24083
25089,24047
25446,24047
25462,24050
25479,24047
25479,24047
25527,24037
25583,24000
25592,23986
25602,23976
25610,23981
25742,24007
25831,24007
25964,23981
26113,23881
26213,23731
26249,23555
26213,23378
26113,23228
25964,23128
25831,23102
25742,23102
25610,23128
25460,23228
25360,23378
25325,23555
25357,23712
25089,23712
25065,23676
25026,23650
24980,23641
24389,23641
24343,23650
24304,23676
24278,23715
24269,23761
23267,23761
23267,23468
24271,23468
24271,23521
24289,23564
24322,23598
24366,23616
24596,23616
24625,23586
24625,23438
24744,23438
24744,23586
24773,23616
25003,23616
25047,23598
25080,23564
25098,23521
25098,23468
25068,23438
24744,23438
24625,23438
24301,23438
24271,23468
23267,23468
23267,23238
24271,23238
24271,23291
24301,23320
24625,23320
24625,23173
24744,23173
24744,23320
25068,23320
25098,23291
25098,23238
25080,23194
25047,23161
25003,23143
24773,23143
24744,23173
24625,23173
24596,23143
24366,23143
24322,23161
24289,23194
24271,23238
23267,23238
23267,21653
23264,21638
23256,21625
22974,21344
22974,21261
22965,21215
22939,21176
22900,21150
22854,21141
22771,21141
22665,21035
22661,21031
21889,20452
21889,19812
22726,19812
22726,19940
" /> 
</g>
<g style="fill:#FFFFFF; fill-opacity:1.0; 
stroke:#FFFFFF; stroke-width:78.7402; stroke-opacity:1; 
stroke-linecap:round; stroke-linejoin:round;">
</g>
<g style="fill:#FFFFFF; fill-opacity:1.0; 
stroke:#FFFFFF; stroke-width:0; stroke-opacity:1; 
stroke-linecap:round; stroke-linejoin:round;">
<circle cx="22637.8" cy="20078.7" r="78.7402" /> 
</g>
<g style="fill:#FFFFFF; fill-opacity:1.0; 
stroke:#FFFFFF; stroke-width:39.3701; stroke-opacity:1; 
stroke-linecap:round; stroke-linejoin:round;">
</g>
<g style="fill:#FFFFFF; fill-opacity:1.0; 
stroke:#FFFFFF; stroke-width:0; stroke-opacity:1; 
stroke-linecap:round; stroke-linejoin:round;">
<circle cx="24015.7" cy="23326.8" r="78.7402" /> 
</g>
<g style="fill:#FFFFFF; fill-opacity:1.0; 
stroke:#FFFFFF; stroke-width:39.3701; stroke-opacity:1; 
stroke-linecap:round; stroke-linejoin:round;">
</g>
<g style="fill:#FFFFFF; fill-opacity:1.0; 
stroke:#FFFFFF; stroke-width:0; stroke-opacity:1; 
stroke-linecap:round; stroke-linejoin:round;">
<circle cx="24015.7" cy="21752" r="78.7402" /> 
</g>
<g style="fill:#FFFFFF; fill-opacity:1.0; 
stroke:#FFFFFF; stroke-width:39.3701; stroke-opacity:1; 
stroke-linecap:round; stroke-linejoin:round;">
</g>
<g style="fill:#FFFFFF; fill-opacity:1.0; 
stroke:#FFFFFF; stroke-width:0; stroke-opacity:1; 
stroke-linecap:round; stroke-linejoin:round;">
<circle cx="22342.5" cy="20275.6" r="78.7402" /> 
</g>
<g style="fill:#FFFFFF; fill-opacity:1.0; 
stroke:#FFFFFF; stroke-width:39.3701; stroke-opacity:1; 
stroke-linecap:round; stroke-linejoin:round;">
</g>
<g style="fill:#FFFFFF; fill-opacity:1.0; 
stroke:#FFFFFF; stroke-width:0; stroke-opacity:1; 
stroke-linecap:round; stroke-linejoin:round;">
<circle cx="22539.4" cy="20570.9" r="78.7402" /> 
</g>
<g style="fill:#FFFFFF; fill-opacity:1.0; 
stroke:#FFFFFF; stroke-width:39.3701; stroke-opacity:1; 
stroke-linecap:round; stroke-linejoin:round;">
</g>
<g style="fill:#FFFFFF; fill-opacity:1.0; 
stroke:#FFFFFF; stroke-width:0; stroke-opacity:1; 
stroke-linecap:round; stroke-linejoin:round;">
<circle cx="22145.7" cy="23425.2" r="78.7402" /> 
</g>
<g style="fill:#FFFFFF; fill-opacity:1.0; 
stroke:#FFFFFF; stroke-width:39.3701; stroke-opacity:1; 
stroke-linecap:round; stroke-linejoin:round;">
</g>
<g style="fill:#FFFFFF; fill-opacity:1.0; 
stroke:#FFFFFF; stroke-width:0; stroke-opacity:1; 
stroke-linecap:round; stroke-linejoin:round;">
<circle cx="20435" cy="23935" r="196.85" /> 
</g>
<g style="fill:#FFFFFF; fill-opacity:1.0; 
stroke:#FFFFFF; stroke-width:39.3701; stroke-opacity:1; 
stroke-linecap:round; stroke-linejoin:round;">
</g>
<g style="fill:#FFFFFF; fill-opacity:1.0; 
stroke:#FFFFFF; stroke-width:0; stroke-opacity:1; 
stroke-linecap:round; stroke-linejoin:round;">
<circle cx="20435" cy="22935" r="196.85" /> 
</g>
<g style="fill:#FFFFFF; fill-opacity:1.0; 
stroke:#FFFFFF; stroke-width:39.3701; stroke-opacity:1; 
stroke-linecap:round; stroke-linejoin:round;">
</g>
<g style="fill:#FFFFFF; fill-opacity:1.0; 
stroke:#FFFFFF; stroke-width:0; stroke-opacity:1; 
stroke-linecap:round; stroke-linejoin:round;">
<circle cx="20435" cy="21935" r="196.85" /> 
</g>
<g style="fill:#FFFFFF; fill-opacity:1.0; 
stroke:#FFFFFF; stroke-width:39.3701; stroke-opacity:1; 
stroke-linecap:round; stroke-linejoin:round;">
</g>
<g style="fill:#FFFFFF; fill-opacity:1.0; 
stroke:#FFFFFF; stroke-width:0; stroke-opacity:1; 
stroke-linecap:round; stroke-linejoin:round;">
<circle cx="20435" cy="20935" r="196.85" /> 
</g>
<g style="fill:#FFFFFF; fill-opacity:1.0; 
stroke:#FFFFFF; stroke-width:39.3701; stroke-opacity:1; 
stroke-linecap:round; stroke-linejoin:round;">
</g>
<g style="fill:#FFFFFF; fill-opacity:1.0; 
stroke:#FFFFFF; stroke-width:0; stroke-opacity:1; 
stroke-linecap:round; stroke-linejoin:round;">
<circle cx="24787.4" cy="20374" r="196.85" /> 
</g>
<g style="fill:#FFFFFF; fill-opacity:1.0; 
stroke:#FFFFFF; stroke-width:39.3701; stroke-opacity:1; 
stroke-linecap:round; stroke-linejoin:round;">
</g>
<g style="fill:#FFFFFF; fill-opacity:1.0; 
stroke:#FFFFFF; stroke-width:0; stroke-opacity:1; 
stroke-linecap:round; stroke-linejoin:round;">
<circle cx="25787.4" cy="20374" r="196.85" /> 
</g>
<g style="fill:#FFFFFF; fill-opacity:1.0; 
stroke:#FFFFFF; stroke-width:39.3701; stroke-opacity:1; 
stroke-linecap:round; stroke-linejoin:round;">
</g>
<g style="fill:#FFFFFF; fill-opacity:1.0; 
stroke:#FFFFFF; stroke-width:0; stroke-opacity:1; 
stroke-linecap:round; stroke-linejoin:round;">
<circle cx="21435" cy="24435" r="196.85" /> 
</g>
<g style="fill:#FFFFFF; fill-opacity:1.0; 
stroke:#FFFFFF; stroke-width:39.3701; stroke-opacity:1; 
stroke-linecap:round; stroke-linejoin:round;">
</g>
<g style="fill:#FFFFFF; fill-opacity:1.0; 
stroke:#FFFFFF; stroke-width:0; stroke-opacity:1; 
stroke-linecap:round; stroke-linejoin:round;">
<circle cx="21435" cy="23435" r="196.85" /> 
</g>
<g style="fill:#FFFFFF; fill-opacity:1.0; 
stroke:#FFFFFF; stroke-width:39.3701; stroke-opacity:1; 
stroke-linecap:round; stroke-linejoin:round;">
</g>
<g style="fill:#FFFFFF; fill-opacity:1.0; 
stroke:#FFFFFF; stroke-width:0; stroke-opacity:1; 
stroke-linecap:round; stroke-linejoin:round;">
<circle cx="21435" cy="22435" r="196.85" /> 
</g>
<g style="fill:#FFFFFF; fill-opacity:1.0; 
stroke:#FFFFFF; stroke-width:39.3701; stroke-opacity:1; 
stroke-linecap:round; stroke-linejoin:round;">
</g>
<g style="fill:#FFFFFF; fill-opacity:1.0; 
stroke:#FFFFFF; stroke-width:0; stroke-opacity:1; 
stroke-linecap:round; stroke-linejoin:round;">
<circle cx="21435" cy="21435" r="196.85" /> 
</g>
<g style="fill:#FFFFFF; fill-opacity:1.0; 
stroke:#FFFFFF; stroke-width:39.3701; stroke-opacity:1; 
stroke-linecap:round; stroke-linejoin:round;">
</g>
<g style="fill:#FFFFFF; fill-opacity:1.0; 
stroke:#FFFFFF; stroke-width:0; stroke-opacity:1; 
stroke-linecap:round; stroke-linejoin:round;">
<circle cx="25787.4" cy="24555.1" r="196.85" /> 
</g>
<g style="fill:#FFFFFF; fill-opacity:1.0; 
stroke:#FFFFFF; stroke-width:39.3701; stroke-opacity:1; 
stroke-linecap:round; stroke-linejoin:round;">
</g>
<g style="fill:#FFFFFF; fill-opacity:1.0; 
stroke:#FFFFFF; stroke-width:0; stroke-opacity:1; 
stroke-linecap:round; stroke-linejoin:round;">
<circle cx="25787.4" cy="23555.1" r="196.85" /> 
</g>
<g style="fill:#FFFFFF; fill-opacity:1.0; 
stroke:#FFFFFF; stroke-width:39.3701; stroke-opacity:1; 
stroke-linecap:round; stroke-linejoin:round;">
</g>
<g style="fill:#FFFFFF; fill-opacity:1.0; 
stroke:#FFFFFF; stroke-width:0; stroke-opacity:1; 
stroke-linecap:round; stroke-linejoin:round;">
<circle cx="25787.4" cy="22555.1" r="196.85" /> 
</g>
<g style="fill:#FFFFFF; fill-opacity:1.0; 
stroke:#FFFFFF; stroke-width:39.3701; stroke-opacity:1; 
stroke-linecap:round; stroke-linejoin:round;">
</g>
<g style="fill:#FFFFFF; fill-opacity:1.0; 
stroke:#FFFFFF; stroke-width:0; stroke-opacity:1; 
stroke-linecap:round; stroke-linejoin:round;">
<circle cx="25787.4" cy="21555.1" r="196.85" /> 
</g>
<g style="fill:#FFFFFF; fill-opacity:1.0; 
stroke:#FFFFFF; stroke-width:39.3701; stroke-opacity:1; 
stroke-linecap:round; stroke-linejoin:round;">
</g>
<g style="fill:#000000; fill-opacity:1.0; 
stroke:#000000; stroke-width:39.3701; stroke-opacity:1; 
stroke-linecap:round; stroke-linejoin:round;">
</g> 
</svg>
